<svg width="87" height="127" viewBox="0 0 87 127" fill="none" xmlns="http://www.w3.org/2000/svg">
<path d="M18.2311 94.0398C24.4007 94.0398 29.4021 89.0383 29.4021 82.8687C29.4021 76.6991 24.4007 71.6977 18.2311 71.6977C12.0615 71.6977 7.06006 76.6991 7.06006 82.8687C7.06006 89.0383 12.0615 94.0398 18.2311 94.0398Z" fill="#91C5D1" stroke="#47C6E2" stroke-width="1.45272" stroke-miterlimit="10"/>
<path d="M1.34962 116.771C-0.817953 113.16 7.34676 96.6567 18.82 96.6644C30.3029 96.6722 38.4502 113.213 36.2903 116.771C34.9848 118.923 30.4888 115.369 19.6297 115.225C7.86202 115.068 2.74818 119.103 1.34768 116.771H1.34962Z" fill="#91C5D1" stroke="#47C6E2" stroke-width="1.45272" stroke-miterlimit="10"/>
<path d="M65.8803 94.0398C72.0499 94.0398 77.0513 89.0383 77.0513 82.8687C77.0513 76.6991 72.0499 71.6977 65.8803 71.6977C59.7107 71.6977 54.7092 76.6991 54.7092 82.8687C54.7092 89.0383 59.7107 94.0398 65.8803 94.0398Z" fill="#91C5D1" stroke="#47C6E2" stroke-width="1.45272" stroke-miterlimit="10"/>
<path d="M48.9985 116.771C46.831 113.16 54.9957 96.6567 66.4689 96.6644C77.9518 96.6722 86.0991 113.213 83.9393 116.771C82.6337 118.923 78.1378 115.369 67.2786 115.225C55.5109 115.068 50.3971 119.103 48.9966 116.771H48.9985Z" fill="#91C5D1" stroke="#47C6E2" stroke-width="1.45272" stroke-miterlimit="10"/>
<path d="M42.0558 102.175C48.2254 102.175 53.2268 97.1735 53.2268 91.0039C53.2268 84.8343 48.2254 79.8329 42.0558 79.8329C35.8862 79.8329 30.8848 84.8343 30.8848 91.0039C30.8848 97.1735 35.8862 102.175 42.0558 102.175Z" fill="#B0E0EB" stroke="#47C6E2" stroke-width="1.45272" stroke-miterlimit="10"/>
<path d="M25.1741 124.906C23.0065 121.296 31.1712 104.792 42.6444 104.8C54.1273 104.807 62.2746 121.348 60.1148 124.906C58.8092 127.058 54.3133 123.504 43.4541 123.361C31.6865 123.204 26.5726 127.239 25.1721 124.906H25.1741Z" fill="#B0E0EB" stroke="#47C6E2" stroke-width="1.45272" stroke-miterlimit="10"/>
<g filter="url(#filter0_d_485_15821)">
<path d="M24.6948 34.286V21.7135C24.6948 21.259 24.8753 20.8232 25.1967 20.5019C25.518 20.1805 25.9539 20 26.4083 20H60.6776C61.132 20 61.5679 20.1805 61.8892 20.5019C62.2105 20.8232 62.3911 21.259 62.3911 21.7135V34.286C62.3911 52.2774 47.1198 58.2317 44.0784 59.2384C43.7329 59.3663 43.353 59.3663 43.0075 59.2384C39.9661 58.2317 24.6948 52.2774 24.6948 34.286Z" fill="#B0E0EB"/>
<path d="M24.6948 34.286V21.7135C24.6948 21.259 24.8753 20.8232 25.1967 20.5019C25.518 20.1805 25.9539 20 26.4083 20H60.6776C61.132 20 61.5679 20.1805 61.8892 20.5019C62.2105 20.8232 62.3911 21.259 62.3911 21.7135V34.286C62.3911 52.2774 47.1198 58.2317 44.0784 59.2384C43.7329 59.3663 43.353 59.3663 43.0075 59.2384C39.9661 58.2317 24.6948 52.2774 24.6948 34.286Z" stroke="#77D2E6" stroke-width="5.1404" stroke-linecap="round" stroke-linejoin="round"/>
</g>
<path d="M46.6281 34.7363C46.6281 33.1403 45.3353 31.8474 43.7392 31.8474C42.1432 31.8474 40.8503 33.1403 40.8503 34.7363C40.8503 35.7632 41.3854 36.6602 42.1927 37.1736V40.7337C42.1927 41.5874 42.8856 42.2833 43.7423 42.2833C44.5991 42.2833 45.2919 41.5905 45.2919 40.7337V37.1736C46.0961 36.6602 46.6343 35.7632 46.6343 34.7363H46.6281Z" fill="#47C6E2" stroke="#47C6E2" stroke-width="0.367034" stroke-miterlimit="10"/>
<defs>
<filter id="filter0_d_485_15821" x="0.583801" y="0.197241" width="85.9181" height="87.5561" filterUnits="userSpaceOnUse" color-interpolation-filters="sRGB">
<feFlood flood-opacity="0" result="BackgroundImageFix"/>
<feColorMatrix in="SourceAlpha" type="matrix" values="0 0 0 0 0 0 0 0 0 0 0 0 0 0 0 0 0 0 127 0" result="hardAlpha"/>
<feOffset dy="4.30814"/>
<feGaussianBlur stdDeviation="10.7704"/>
<feComposite in2="hardAlpha" operator="out"/>
<feColorMatrix type="matrix" values="0 0 0 0 0.277344 0 0 0 0 0.777672 0 0 0 0 0.8875 0 0 0 0.35 0"/>
<feBlend mode="normal" in2="BackgroundImageFix" result="effect1_dropShadow_485_15821"/>
<feBlend mode="normal" in="SourceGraphic" in2="effect1_dropShadow_485_15821" result="shape"/>
</filter>
</defs>
</svg>
