<svg width="230" height="162" viewBox="0 0 230 162" fill="none" xmlns="http://www.w3.org/2000/svg">
<g clip-path="url(#clip0_284_6898)" filter="url(#filter0_d_284_6898)">
<path d="M164.802 6.24896H59.3939C54.7523 6.24896 50.9895 10.0117 50.9895 14.6534V82.3764C50.9895 87.018 54.7523 90.7808 59.3939 90.7808H164.802C169.444 90.7808 173.207 87.018 173.207 82.3764V14.6534C173.207 10.0117 169.444 6.24896 164.802 6.24896Z" fill="#B0E0EB" stroke="#47C6E2" stroke-width="0.995781" stroke-miterlimit="10"/>
<path d="M162.253 11.4469H61.938C58.5778 11.4469 55.8538 14.1709 55.8538 17.5312V78.941C55.8538 82.3012 58.5778 85.0252 61.938 85.0252H162.253C165.613 85.0252 168.337 82.3012 168.337 78.941V17.5312C168.337 14.1709 165.613 11.4469 162.253 11.4469Z" fill="#303030" stroke="#47C6E2" stroke-width="0.995781" stroke-miterlimit="10"/>
<path d="M190.971 147.481L41.3304 147.58C34.7234 147.58 30.8946 144.08 32.687 139.943L49.9638 100.126C50.9596 97.831 55.5103 96.0286 60.1606 96.0286H165.564C170.199 96.0286 174.969 97.826 176.259 100.116L198.594 139.848C200.914 143.975 197.549 147.476 190.971 147.481Z" fill="#77D2E6"/>
<path d="M190.971 142.228L41.3304 142.327C34.7234 142.327 30.8946 138.827 32.687 134.69L49.9638 94.8735C50.9596 92.5782 55.5103 90.7758 60.1606 90.7758H165.564C170.199 90.7758 174.969 92.5732 176.259 94.8635L198.594 134.595C200.914 138.723 197.549 142.223 190.971 142.228Z" fill="#B0E0EB" stroke="#47C6E2" stroke-width="0.995781" stroke-miterlimit="10"/>
<path d="M66.001 98.4782H58.7318C57.9302 98.4782 57.3975 98.1546 57.5468 97.7563L58.8264 94.2561C58.9658 93.8827 59.6977 93.579 60.4694 93.579H67.4648C68.2365 93.579 68.7743 93.8827 68.6647 94.2561L67.659 97.7563C67.5445 98.1546 66.8026 98.4782 66.001 98.4782Z" fill="#77D3E7" stroke="#47C6E2" stroke-width="0.995781" stroke-miterlimit="10"/>
<path d="M78.6224 98.4782H71.3582C70.5566 98.4782 69.9939 98.1546 70.1035 97.7563L71.0445 94.2561C71.1441 93.8827 71.8511 93.579 72.6228 93.579H79.6132C80.3849 93.579 80.9525 93.8827 80.8778 94.2561L80.2107 97.7563C80.136 98.1546 79.424 98.4782 78.6224 98.4782Z" fill="#77D3E7" stroke="#47C6E2" stroke-width="0.995781" stroke-miterlimit="10"/>
<path d="M91.0947 98.4732H83.8304C83.0288 98.4732 82.4364 98.1496 82.5061 97.7513L83.1135 94.2511C83.1782 93.8777 83.8553 93.574 84.6271 93.574H91.6175C92.3892 93.574 92.9817 93.8777 92.9468 94.2511L92.6132 97.7513C92.5734 98.1496 91.8963 98.4732 91.0947 98.4732Z" fill="#77D3E7" stroke="#47C6E2" stroke-width="0.995781" stroke-miterlimit="10"/>
<path d="M104.035 98.4732H96.7755C95.9739 98.4732 95.3515 98.1496 95.3814 97.7513L95.6403 94.2561C95.6702 93.8827 96.3174 93.579 97.0842 93.579H104.07C104.841 93.579 105.464 93.8827 105.469 94.2561L105.484 97.7513C105.484 98.1496 104.836 98.4732 104.035 98.4732Z" fill="#77D3E7" stroke="#47C6E2" stroke-width="0.995781" stroke-miterlimit="10"/>
<path d="M116.965 98.4732H109.706C108.904 98.4732 108.247 98.1496 108.237 97.7513L108.147 94.2561C108.137 93.8827 108.755 93.579 109.526 93.579H116.512C117.284 93.579 117.936 93.8827 117.976 94.2561L118.334 97.7513C118.374 98.1496 117.762 98.4732 116.96 98.4732H116.965Z" fill="#77D3E7" stroke="#47C6E2" stroke-width="0.995781" stroke-miterlimit="10"/>
<path d="M129.567 98.4732H122.312C121.511 98.4732 120.824 98.1496 120.774 97.7513L120.346 94.2561C120.301 93.8827 120.888 93.579 121.66 93.579H128.645C129.417 93.579 130.099 93.8827 130.174 94.2561L130.871 97.7513C130.951 98.1496 130.368 98.4732 129.567 98.4732Z" fill="#77D3E7" stroke="#47C6E2" stroke-width="0.995781" stroke-miterlimit="10"/>
<path d="M142.024 98.4683H134.77C133.968 98.4683 133.251 98.1446 133.166 97.7463L132.405 94.2511C132.325 93.8777 132.883 93.574 133.649 93.574H140.63C141.401 93.574 142.113 93.8727 142.223 94.2511L143.254 97.7463C143.373 98.1446 142.82 98.4683 142.019 98.4683H142.024Z" fill="#77D3E7" stroke="#47C6E2" stroke-width="0.995781" stroke-miterlimit="10"/>
<path d="M154.944 98.4683H147.695C146.893 98.4683 146.146 98.1446 146.017 97.7463L144.911 94.2511C144.792 93.8777 145.32 93.574 146.091 93.574H153.072C153.844 93.574 154.585 93.8727 154.73 94.2511L156.109 97.7463C156.263 98.1446 155.746 98.4683 154.944 98.4683Z" fill="#77D3E7" stroke="#47C6E2" stroke-width="0.995781" stroke-miterlimit="10"/>
<path d="M167.63 98.4683H160.381C159.579 98.4683 158.798 98.1446 158.633 97.7463L157.189 94.2511C157.035 93.8777 157.533 93.574 158.305 93.574H165.28C166.047 93.574 166.819 93.8727 167.003 94.2511L168.721 97.7463C168.915 98.1446 168.427 98.4683 167.63 98.4683Z" fill="#77D3E7" stroke="#47C6E2" stroke-width="0.995781" stroke-miterlimit="10"/>
<path d="M64.0243 105.09H56.3866C55.5452 105.09 54.9926 104.732 55.1519 104.294L56.5609 100.44C56.7103 100.027 57.487 99.698 58.2985 99.698H65.6325C66.4391 99.698 67.0017 100.027 66.8822 100.44L65.7719 104.294C65.6474 104.732 64.8607 105.09 64.0193 105.09H64.0243Z" fill="#77D3E7" stroke="#47C6E2" stroke-width="0.995781" stroke-miterlimit="10"/>
<path d="M77.2881 105.085H69.6554C68.814 105.085 68.2265 104.727 68.346 104.289L69.3816 100.435C69.4911 100.022 70.238 99.6931 71.0446 99.6931H78.3785C79.1851 99.6931 79.7776 100.022 79.6979 100.435L78.961 104.289C78.8764 104.727 78.1246 105.085 77.2831 105.085H77.2881Z" fill="#77D3E7" stroke="#47C6E2" stroke-width="0.995781" stroke-miterlimit="10"/>
<path d="M90.3926 105.085H82.7599C81.9185 105.085 81.2961 104.727 81.3758 104.289L82.0429 100.435C82.1126 100.022 82.8296 99.6931 83.6362 99.6931H90.9651C91.7717 99.6931 92.3991 100.022 92.3592 100.435L91.9908 104.289C91.951 104.727 91.234 105.085 90.3926 105.085Z" fill="#77D3E7" stroke="#47C6E2" stroke-width="0.995781" stroke-miterlimit="10"/>
<path d="M103.985 105.08H96.3572C95.5158 105.08 94.8586 104.722 94.8934 104.284L95.1772 100.43C95.2071 100.017 95.8892 99.6881 96.6958 99.6881H104.025C104.831 99.6881 105.489 100.017 105.489 100.43L105.503 104.284C105.503 104.722 104.826 105.08 103.985 105.08Z" fill="#77D3E7" stroke="#47C6E2" stroke-width="0.995781" stroke-miterlimit="10"/>
<path d="M117.572 105.08H109.945C109.103 105.08 108.411 104.727 108.401 104.284L108.307 100.43C108.297 100.017 108.944 99.6881 109.751 99.6881H117.075C117.881 99.6881 118.573 100.017 118.613 100.43L119.011 104.284C119.056 104.722 118.414 105.08 117.572 105.08Z" fill="#77D3E7" stroke="#47C6E2" stroke-width="0.995781" stroke-miterlimit="10"/>
<path d="M130.816 105.075H123.193C122.352 105.075 121.63 104.722 121.575 104.279L121.107 100.425C121.058 100.012 121.67 99.6831 122.482 99.6831H129.805C130.612 99.6831 131.334 100.012 131.414 100.425L132.18 104.279C132.27 104.717 131.658 105.075 130.816 105.075Z" fill="#77D3E7" stroke="#47C6E2" stroke-width="0.995781" stroke-miterlimit="10"/>
<path d="M143.901 105.075H136.283C135.442 105.075 134.685 104.722 134.59 104.279L133.754 100.425C133.664 100.012 134.247 99.6831 135.053 99.6831H142.372C143.179 99.6831 143.931 100.012 144.055 100.425L145.19 104.274C145.32 104.712 144.742 105.07 143.906 105.07L143.901 105.075Z" fill="#77D3E7" stroke="#47C6E2" stroke-width="0.995781" stroke-miterlimit="10"/>
<path d="M157.478 105.07H149.861C149.019 105.07 148.228 104.717 148.088 104.274L146.868 100.425C146.739 100.012 147.287 99.6831 148.093 99.6831H155.412C156.219 99.6831 157.005 100.012 157.165 100.425L158.683 104.274C158.858 104.712 158.315 105.07 157.478 105.07Z" fill="#77D3E7" stroke="#47C6E2" stroke-width="0.995781" stroke-miterlimit="10"/>
<path d="M170.802 105.07H163.189C162.348 105.07 161.521 104.717 161.337 104.279L159.744 100.43C159.574 100.017 160.092 99.6881 160.899 99.6881H168.213C169.019 99.6881 169.836 100.017 170.04 100.43L171.932 104.279C172.146 104.717 171.643 105.075 170.802 105.075V105.07Z" fill="#77D3E7" stroke="#47C6E2" stroke-width="0.995781" stroke-miterlimit="10"/>
<path d="M61.8385 112.404H53.7926C52.9063 112.404 52.3338 112.011 52.508 111.523L54.0714 107.251C54.2357 106.798 55.0622 106.43 55.9136 106.43H63.6259C64.4773 106.43 65.0598 106.793 64.9304 107.251L63.7006 111.518C63.5612 112.006 62.7247 112.404 61.8385 112.404Z" fill="#77D3E7" stroke="#47C6E2" stroke-width="0.995781" stroke-miterlimit="10"/>
<path d="M75.8092 112.404H67.7683C66.8821 112.404 66.2697 112.011 66.3991 111.523L67.5492 107.256C67.6737 106.803 68.4604 106.434 69.3118 106.434H77.0191C77.8705 106.434 78.4879 106.798 78.4032 107.256L77.5867 111.523C77.4921 112.011 76.7005 112.409 75.8142 112.409L75.8092 112.404Z" fill="#77D3E7" stroke="#47C6E2" stroke-width="0.995781" stroke-miterlimit="10"/>
<path d="M89.6107 112.399H81.5748C80.6885 112.399 80.0363 112.006 80.1209 111.518L80.8628 107.251C80.9424 106.798 81.6942 106.43 82.5456 106.43H90.253C91.1044 106.43 91.7566 106.793 91.7118 107.251L91.3035 111.518C91.2587 112.006 90.5019 112.404 89.6157 112.404L89.6107 112.399Z" fill="#77D3E7" stroke="#47C6E2" stroke-width="0.995781" stroke-miterlimit="10"/>
<path d="M103.935 112.394H95.8991C95.0129 112.394 94.3258 112.001 94.3606 111.513L94.6743 107.246C94.7092 106.793 95.4261 106.425 96.2725 106.425H103.975C104.826 106.425 105.513 106.788 105.513 107.246L105.528 111.513C105.528 112.001 104.811 112.394 103.925 112.399L103.935 112.394Z" fill="#77D3E7" stroke="#47C6E2" stroke-width="0.995781" stroke-miterlimit="10"/>
<path d="M177.648 119.32L51.3232 119.37C50.3922 119.37 49.7997 118.932 49.9939 118.399L51.3033 114.814C51.4875 114.306 52.3638 113.898 53.26 113.898L175.019 113.863C175.91 113.863 176.836 114.271 177.085 114.774L178.843 118.354C179.107 118.887 178.569 119.325 177.643 119.325L177.648 119.32Z" fill="#77D3E7" stroke="#47C6E2" stroke-width="0.995781" stroke-miterlimit="10"/>
<path d="M118.245 112.389H110.214C109.327 112.389 108.6 111.996 108.585 111.508L108.476 107.241C108.466 106.788 109.143 106.42 109.994 106.42H117.697C118.548 106.42 119.27 106.783 119.32 107.241L119.758 111.508C119.808 111.996 119.131 112.389 118.245 112.389Z" fill="#77D3E7" stroke="#47C6E2" stroke-width="0.995781" stroke-miterlimit="10"/>
<path d="M139.748 136.637L89.805 136.666C88.7694 136.666 87.9827 136.124 88.0524 135.462L89.4166 121.994C89.4714 121.436 90.278 120.988 91.219 120.988L136.522 120.968C137.458 120.968 138.319 121.416 138.439 121.969L141.362 135.422C141.506 136.084 140.784 136.627 139.753 136.627L139.748 136.637Z" fill="#77D3E7" stroke="#47C6E2" stroke-width="0.995781" stroke-miterlimit="10"/>
<path d="M132.191 112.384H124.16C123.273 112.384 122.507 111.991 122.447 111.503L121.929 107.236C121.874 106.783 122.517 106.415 123.368 106.415H131.065C131.912 106.415 132.674 106.778 132.768 107.236L133.62 111.503C133.719 111.991 133.077 112.384 132.191 112.384Z" fill="#77D3E7" stroke="#47C6E2" stroke-width="0.995781" stroke-miterlimit="10"/>
<path d="M145.977 112.384H137.951C137.065 112.384 136.263 111.991 136.158 111.503L135.232 107.236C135.133 106.783 135.74 106.415 136.592 106.415H144.284C145.13 106.415 145.927 106.778 146.061 107.236L147.321 111.498C147.466 111.986 146.863 112.379 145.982 112.379L145.977 112.384Z" fill="#77D3E7" stroke="#47C6E2" stroke-width="0.995781" stroke-miterlimit="10"/>
<path d="M160.277 112.379H152.256C151.369 112.379 150.528 111.986 150.374 111.498L149.024 107.236C148.88 106.783 149.452 106.415 150.299 106.415H157.991C158.838 106.415 159.669 106.778 159.848 107.236L161.531 111.498C161.725 111.986 161.163 112.379 160.277 112.379Z" fill="#77D3E7" stroke="#47C6E2" stroke-width="0.995781" stroke-miterlimit="10"/>
<path d="M174.312 112.374H166.291C165.405 112.374 164.524 111.981 164.324 111.493L162.562 107.231C162.373 106.778 162.91 106.41 163.757 106.41H171.444C172.291 106.41 173.157 106.773 173.381 107.226L175.477 111.488C175.716 111.976 175.193 112.369 174.312 112.369V112.374Z" fill="#77D3E7" stroke="#47C6E2" stroke-width="0.995781" stroke-miterlimit="10"/>
<g filter="url(#filter1_d_284_6898)">
<path d="M112 57C113.105 57 114 56.1046 114 55C114 53.8954 113.105 53 112 53C110.895 53 110 53.8954 110 55C110 56.1046 110.895 57 112 57Z" fill="#77D3E7"/>
<path d="M112 41L112 50" stroke="#77D3E7" stroke-width="3" stroke-linecap="round" stroke-linejoin="round"/>
<path d="M108.969 33.25C110.316 30.9167 113.684 30.9167 115.031 33.25L128.887 57.25C130.235 59.5833 128.551 62.5 125.856 62.5H98.1436C95.4493 62.5 93.7654 59.5833 95.1125 57.25L108.969 33.25Z" stroke="#77D2E6" stroke-width="3"/>
</g>
</g>
<circle cx="216.889" cy="75.6495" r="12.5284" fill="#8DE4F8" stroke="#47C6E2" stroke-width="0.242095"/>
<circle cx="214.649" cy="75.6495" r="12.5284" fill="#B0E0EB" stroke="#47C6E2" stroke-width="0.242095"/>
<circle cx="214.649" cy="75.6495" r="8.83648" fill="#8DE4F8" stroke="#47C6E2" stroke-width="0.242095"/>
<circle cx="215.333" cy="75.6734" r="8.23414" fill="#B0E0EB" stroke="#47C6E2" stroke-width="0.225593"/>
<circle cx="14.889" cy="38.6495" r="12.5284" fill="#8DE4F8" stroke="#47C6E2" stroke-width="0.242095"/>
<circle cx="12.6495" cy="38.6495" r="12.5284" fill="#B0E0EB" stroke="#47C6E2" stroke-width="0.242095"/>
<circle cx="12.6494" cy="38.6495" r="8.83648" fill="#8DE4F8" stroke="#47C6E2" stroke-width="0.242095"/>
<circle cx="13.3333" cy="38.6734" r="8.23414" fill="#B0E0EB" stroke="#47C6E2" stroke-width="0.225593"/>
<defs>
<filter id="filter0_d_284_6898" x="22" y="0" width="187.58" height="161.829" filterUnits="userSpaceOnUse" color-interpolation-filters="sRGB">
<feFlood flood-opacity="0" result="BackgroundImageFix"/>
<feColorMatrix in="SourceAlpha" type="matrix" values="0 0 0 0 0 0 0 0 0 0 0 0 0 0 0 0 0 0 127 0" result="hardAlpha"/>
<feOffset dy="4"/>
<feGaussianBlur stdDeviation="5"/>
<feComposite in2="hardAlpha" operator="out"/>
<feColorMatrix type="matrix" values="0 0 0 0 0.277344 0 0 0 0 0.777672 0 0 0 0 0.8875 0 0 0 0.2 0"/>
<feBlend mode="normal" in2="BackgroundImageFix" result="effect1_dropShadow_284_6898"/>
<feBlend mode="normal" in="SourceGraphic" in2="effect1_dropShadow_284_6898" result="shape"/>
</filter>
<filter id="filter1_d_284_6898" x="83.1362" y="24" width="57.7275" height="54" filterUnits="userSpaceOnUse" color-interpolation-filters="sRGB">
<feFlood flood-opacity="0" result="BackgroundImageFix"/>
<feColorMatrix in="SourceAlpha" type="matrix" values="0 0 0 0 0 0 0 0 0 0 0 0 0 0 0 0 0 0 127 0" result="hardAlpha"/>
<feOffset dy="4"/>
<feGaussianBlur stdDeviation="5"/>
<feComposite in2="hardAlpha" operator="out"/>
<feColorMatrix type="matrix" values="0 0 0 0 0.466667 0 0 0 0 0.823529 0 0 0 0 0.901961 0 0 0 0.6 0"/>
<feBlend mode="normal" in2="BackgroundImageFix" result="effect1_dropShadow_284_6898"/>
<feBlend mode="normal" in="SourceGraphic" in2="effect1_dropShadow_284_6898" result="shape"/>
</filter>
<clipPath id="clip0_284_6898">
<rect width="167.58" height="141.829" fill="white" transform="translate(32 6)"/>
</clipPath>
</defs>
</svg>
