<svg width="1560" height="1543" viewBox="0 0 1560 1543" fill="none" xmlns="http://www.w3.org/2000/svg">
<g opacity="0.8">
<path d="M434.658 136.689C602.333 7.90859 854.592 191.593 1088.9 402.398C1323.53 614.362 1450.42 733.243 1362.88 939.637C1274.5 1147.52 990.245 1343.22 780.199 1319.07C570.171 1294.92 252.451 1182.68 148.891 916.941C109.745 817.608 301.412 628.983 329.954 525.455C377.993 351.164 330.202 217.289 434.671 136.695L434.658 136.689Z" stroke="#EBFBFF" stroke-width="1.20365" stroke-miterlimit="10"/>
<path d="M769.259 1317.45C560.346 1291.49 251.546 1177.37 150.848 917.244C112.612 818.949 297.801 627.592 328.722 520.677C330.129 515.822 331.429 511.001 332.685 506.21C375.841 339.704 341.148 212.069 444.252 136.613C609.735 12.2309 864.031 194.735 1095.88 401.832C1119.92 423.287 1142.71 443.757 1164.13 463.409C1351.52 635.516 1433.76 751.382 1357.01 935.632C1320.75 1024.16 1256.8 1112.64 1169.33 1181.88C1050.2 1276.13 893.485 1333.62 769.259 1317.45Z" stroke="#E9F9FF" stroke-width="1.20365" stroke-miterlimit="10"/>
<path d="M758.312 1315.84C550.52 1288.07 250.646 1172.07 152.798 917.56C115.473 820.303 294.156 626.203 327.501 515.904C328.979 511.03 330.335 506.185 331.648 501.37C376.691 335.764 349.199 209.106 453.858 136.541C617.135 16.5526 873.488 197.869 1102.87 401.27C1126.97 422.545 1149.74 442.821 1170.97 462.222C1355.81 631.478 1426.05 748.449 1351.16 931.619C1315.39 1022.24 1258.09 1114.88 1168.21 1186.04C1049.48 1280.02 884.063 1334.05 758.312 1315.84Z" stroke="#E8F7FF" stroke-width="1.20365" stroke-miterlimit="10"/>
<path d="M747.372 1314.22C540.696 1284.65 249.755 1166.76 154.774 917.856C118.346 821.632 290.505 624.796 326.302 511.125C327.849 506.233 329.262 501.364 330.637 496.511C377.314 331.735 357.282 206.11 463.485 136.463C624.564 20.8871 882.965 200.997 1109.9 400.694C1134.06 421.775 1156.81 441.853 1177.85 461.008C1360.12 627.43 1418.33 745.514 1345.3 927.608C1310.02 1020.31 1259.38 1117.1 1167.1 1190.2C1048.75 1283.89 874.623 1334.48 747.372 1314.22Z" stroke="#E6F5FF" stroke-width="1.20365" stroke-miterlimit="10"/>
<path d="M736.425 1312.61C530.87 1281.23 248.855 1161.46 156.724 918.172C121.206 822.986 286.8 623.399 325.075 506.367C326.679 501.45 328.162 496.562 329.593 491.685C377.874 327.742 365.332 203.147 473.085 136.405C631.972 25.2284 892.41 204.158 1116.89 400.146C1141.12 421.039 1163.83 440.912 1184.67 459.817C1364.41 623.393 1410.61 742.582 1339.43 923.604C1304.63 1018.41 1260.65 1119.35 1165.96 1194.38C1048.02 1287.77 865.195 1334.92 736.425 1312.61Z" stroke="#E4F4FF" stroke-width="1.20365" stroke-miterlimit="10"/>
<path d="M725.485 1310.99C521.051 1277.79 247.963 1156.14 158.687 918.462C124.079 824.314 283.09 621.984 323.862 501.581C325.536 496.645 327.067 491.715 328.563 486.832C378.432 323.716 373.391 200.171 482.679 136.329C639.368 29.5643 901.855 207.287 1123.87 399.58C1148.16 420.279 1170.84 439.953 1191.5 458.612C1368.72 619.344 1402.89 739.645 1333.58 919.592C1299.27 1016.49 1261.95 1121.58 1164.85 1198.54C1047.29 1291.65 855.769 1335.36 725.485 1310.99Z" stroke="#E2F2FF" stroke-width="1.20365" stroke-miterlimit="10"/>
<path d="M714.539 1309.38C511.234 1274.39 247.065 1150.84 160.638 918.779C126.94 825.669 279.322 620.593 322.642 496.809C324.373 491.849 325.974 486.9 327.527 481.994C378.958 319.694 381.448 197.196 492.287 136.259C646.783 33.8928 911.313 210.422 1130.88 399.011C1155.24 419.536 1177.88 439.005 1198.36 457.405C1373.03 615.313 1395.19 736.701 1327.72 915.593C1293.91 1014.58 1263.24 1123.83 1163.73 1202.72C1046.55 1295.53 846.342 1335.8 714.539 1309.38Z" stroke="#E1F0FF" stroke-width="1.20365" stroke-miterlimit="10"/>
<path d="M703.597 1307.76C501.413 1270.95 246.176 1145.52 162.612 919.073C129.824 827.002 275.564 619.174 321.426 492.023C323.227 487.045 324.885 482.071 326.5 477.127C379.488 315.657 389.509 194.206 501.903 136.16C654.202 38.2068 920.774 213.543 1137.88 398.423C1162.31 418.754 1184.91 438.023 1205.21 456.179C1377.35 611.241 1387.48 733.742 1321.87 911.554C1288.55 1012.63 1264.54 1126.02 1162.63 1206.85C1045.82 1299.4 836.919 1336.23 703.597 1307.76Z" stroke="#DFEEFF" stroke-width="1.20365" stroke-miterlimit="10"/>
<path d="M692.651 1306.15C491.588 1267.53 245.278 1140.22 164.563 919.39C132.673 828.352 271.762 617.753 320.202 487.265C322.059 482.262 323.773 477.265 325.458 472.302C379.976 311.651 397.562 191.244 511.486 136.111C661.593 42.5567 930.208 216.699 1144.85 397.884C1169.35 418.026 1191.91 437.091 1212.01 455.009C1381.6 607.235 1379.73 730.841 1315.98 907.571C1283.14 1010.75 1265.8 1128.28 1161.48 1211.05C1045.09 1303.28 827.493 1336.67 692.651 1306.15Z" stroke="#DDECFF" stroke-width="1.20365" stroke-miterlimit="10"/>
<path d="M681.704 1304.54C481.761 1264.1 244.379 1134.92 166.513 919.706C135.532 829.706 267.933 616.353 318.975 482.505C320.884 477.492 322.674 472.463 324.415 467.476C380.449 307.638 405.612 188.281 521.086 136.053C669 46.8974 939.658 219.846 1151.84 397.322C1176.4 417.271 1198.94 436.137 1218.85 453.809C1385.9 603.198 1372.01 727.903 1310.12 903.572C1277.77 1008.83 1267.08 1130.53 1160.35 1215.23C1044.35 1307.16 818.064 1337.11 681.704 1304.54Z" stroke="#DCEAFF" stroke-width="1.20365" stroke-miterlimit="10"/>
<path d="M670.764 1302.92C471.937 1260.68 243.487 1129.61 168.489 920C138.419 831.038 264.096 614.901 317.781 477.711C319.745 472.674 321.592 467.62 323.403 462.615C380.927 303.579 413.689 185.296 530.718 135.96C676.434 51.2166 949.135 222.972 1158.87 396.744C1183.5 416.5 1205.99 435.179 1225.73 452.593C1390.25 599.15 1364.33 724.955 1304.3 899.543C1272.44 1006.89 1268.41 1132.74 1159.28 1219.38C1043.64 1311.04 808.638 1337.55 670.764 1302.92Z" stroke="#DAE9FF" stroke-width="1.20365" stroke-miterlimit="10"/>
<path d="M659.804 1301.31C462.111 1257.26 242.574 1124.3 170.425 920.312C141.266 832.388 260.206 613.462 316.541 472.948C318.576 467.892 320.479 462.814 322.353 457.771C381.36 299.551 421.732 182.315 540.305 135.897C683.829 55.5531 958.573 226.115 1165.84 396.191C1190.54 415.772 1213 434.234 1232.56 451.403C1394.53 595.109 1356.6 722.032 1298.41 895.547C1267.04 1004.98 1269.66 1134.99 1158.13 1223.56C1042.9 1314.92 799.21 1337.99 659.804 1301.31Z" stroke="#D8E7FF" stroke-width="1.20365" stroke-miterlimit="10"/>
<path d="M648.864 1299.68C452.293 1253.82 241.683 1118.99 172.389 920.601C144.139 833.716 256.33 611.995 315.328 468.162C317.42 463.082 319.379 457.98 321.336 452.924C381.807 295.496 429.804 179.345 549.919 135.813C691.245 59.8812 968.037 229.236 1172.84 395.604C1197.6 414.991 1220.04 433.253 1239.4 450.171C1398.83 591.041 1348.88 719.049 1292.55 891.503C1261.68 1003.04 1270.97 1137.19 1157.01 1227.69C1042.17 1318.79 789.79 1338.42 648.864 1299.68Z" stroke="#D6E5FF" stroke-width="1.20365" stroke-miterlimit="10"/>
<path d="M637.917 1298.07C442.461 1250.41 240.783 1113.69 174.339 920.917C146.986 835.065 252.394 610.551 314.089 463.397C316.223 458.288 318.266 453.173 320.28 448.092C382.194 291.464 437.842 176.377 559.501 135.763C698.635 64.23 977.451 232.4 1179.82 395.069C1204.66 414.268 1227.05 432.326 1246.22 449.012C1403.12 587.049 1341.16 716.158 1286.68 887.544C1256.29 1001.17 1272.23 1139.48 1155.88 1231.9C1041.43 1322.68 780.362 1338.86 637.917 1298.07Z" stroke="#D5E3FF" stroke-width="1.20365" stroke-miterlimit="10"/>
<path d="M626.976 1296.45C432.641 1246.97 239.89 1108.38 176.314 921.212C149.871 836.398 248.489 609.074 312.888 458.617C315.079 453.484 317.178 448.344 319.262 443.245C382.606 287.412 445.918 173.393 569.126 135.684C706.062 68.5636 986.927 235.527 1186.83 394.5C1211.73 413.505 1234.09 431.364 1253.08 447.805C1407.43 583.005 1333.46 713.218 1280.84 883.524C1250.94 999.24 1273.54 1141.7 1154.79 1236.05C1040.7 1326.56 770.935 1339.3 626.976 1296.45Z" stroke="#D3E1FF" stroke-width="1.20365" stroke-miterlimit="10"/>
<path d="M616.029 1294.84C422.828 1243.55 238.991 1103.08 178.264 921.529C152.731 837.753 244.532 607.606 311.667 453.845C313.915 448.687 316.084 443.529 318.224 438.406C382.991 283.348 453.969 170.43 578.732 135.613C713.476 72.8913 996.383 238.661 1193.83 393.926C1218.8 412.756 1241.12 430.41 1259.92 446.586C1411.74 578.955 1325.74 710.268 1274.97 879.506C1245.56 997.309 1274.82 1143.93 1153.65 1240.22C1039.97 1330.44 761.507 1339.74 616.029 1294.84Z" stroke="#D1DFFF" stroke-width="1.20365" stroke-miterlimit="10"/>
<path d="M605.088 1293.22C413.008 1240.12 238.098 1097.77 180.225 921.818C155.603 839.08 240.559 606.101 310.452 449.059C312.757 443.877 314.983 438.695 317.198 433.54C383.368 279.266 462.037 167.428 588.331 135.523C720.877 77.2139 1005.83 241.79 1200.83 393.351C1225.86 411.988 1248.15 429.442 1266.76 445.374C1416.04 574.892 1318.03 707.318 1269.13 875.48C1240.2 995.384 1276.13 1146.14 1152.55 1244.37C1039.24 1334.32 752.085 1340.17 605.088 1293.22Z" stroke="#D0DEFF" stroke-width="1.20365" stroke-miterlimit="10"/>
<path d="M594.142 1291.61C403.177 1236.71 237.185 1092.46 182.176 922.135C158.464 840.435 236.562 604.618 309.227 444.301C311.588 439.095 313.871 433.888 316.156 428.714C383.716 275.218 470.096 164.484 597.932 135.466C728.286 81.5552 1015.28 244.938 1207.81 392.803C1232.91 411.246 1255.16 428.502 1273.6 444.188C1420.33 570.869 1310.31 704.4 1263.26 871.495C1234.82 993.472 1277.4 1148.39 1151.41 1248.54C1038.5 1338.19 742.658 1340.61 594.142 1291.61Z" stroke="#CEDCFF" stroke-width="1.20365" stroke-miterlimit="10"/>
<path d="M583.203 1289.99C393.359 1233.27 236.294 1087.15 184.153 922.429C161.351 841.768 232.565 603.101 308.027 439.52C310.445 434.29 312.798 429.065 315.14 423.867C384.068 271.124 478.174 161.499 607.559 135.386C735.721 85.8743 1024.76 248.064 1214.83 392.22C1240 410.475 1262.21 427.526 1280.47 442.966C1424.67 566.816 1302.62 701.446 1257.42 867.455C1229.45 991.56 1278.69 1150.62 1150.3 1252.72C1037.79 1342.07 733.232 1341.05 583.203 1289.99Z" stroke="#CCDAFF" stroke-width="1.20365" stroke-miterlimit="10"/>
<path d="M572.256 1288.38C383.533 1229.85 235.4 1081.84 186.103 922.746C164.198 843.117 228.546 601.594 306.793 434.742C309.254 429.483 311.677 424.239 314.089 419.022C384.38 267.047 486.217 158.518 617.133 135.318C743.097 90.2186 1034.17 251.214 1221.79 391.662C1247.02 409.723 1269.2 426.588 1287.26 441.778C1428.91 562.791 1294.86 698.525 1251.51 863.467C1224.07 989.643 1279.97 1152.86 1149.17 1256.89C1037.05 1345.95 723.805 1341.49 572.256 1288.38Z" stroke="#CBD8FF" stroke-width="1.20365" stroke-miterlimit="10"/>
<path d="M561.314 1286.76C373.72 1226.43 234.507 1076.53 188.063 923.036C167.069 844.446 224.492 600.057 305.578 429.957C308.095 424.674 310.575 419.406 313.062 414.157C384.709 262.931 494.279 155.53 626.749 135.221C750.521 94.5204 1043.64 254.323 1228.8 391.08C1254.11 408.966 1276.25 425.613 1294.12 440.558C1433.25 558.725 1287.16 695.568 1245.67 859.448C1218.7 987.718 1281.26 1155.1 1148.05 1261.05C1036.32 1349.83 714.377 1341.93 561.314 1286.76Z" stroke="#C9D6FF" stroke-width="1.20365" stroke-miterlimit="10"/>
<path d="M550.368 1285.15C363.895 1223.01 233.608 1071.23 190.015 923.352C169.931 845.8 220.434 598.533 304.353 425.199C306.927 419.891 309.463 414.599 312.02 409.331C385.008 258.848 502.331 152.567 636.346 135.177C757.92 98.8884 1053.09 257.484 1235.79 390.532C1261.15 408.225 1283.27 424.672 1300.96 439.372C1437.54 554.702 1279.45 692.65 1239.81 855.449C1213.33 985.806 1282.55 1157.32 1146.94 1265.22C1035.59 1353.71 704.955 1342.35 550.368 1285.15Z" stroke="#C7D4FF" stroke-width="1.20365" stroke-miterlimit="10"/>
<path d="M539.423 1283.54C354.071 1219.58 232.711 1065.93 191.98 923.673C172.806 847.159 216.363 597.002 303.142 420.444C305.759 415.107 308.365 409.796 310.993 404.51C385.309 254.764 510.391 149.623 645.961 135.124C765.343 103.234 1062.55 260.65 1242.79 389.989C1268.23 407.494 1290.3 423.736 1307.81 438.19C1441.85 550.684 1271.74 689.736 1233.96 851.468C1207.97 983.88 1283.84 1159.56 1145.81 1269.38C1034.86 1357.58 695.515 1342.79 539.423 1283.54Z" stroke="#C5D3FF" stroke-width="1.20365" stroke-miterlimit="10"/>
<path d="M528.481 1281.92C344.25 1216.15 231.817 1060.61 193.94 923.963C175.677 848.487 212.274 595.435 301.932 415.645C304.606 410.284 307.268 404.949 309.966 399.644C385.61 250.636 518.458 146.62 655.565 135.021C772.748 107.544 1072 263.752 1249.79 389.401C1275.29 406.712 1297.33 422.769 1314.65 436.959C1446.16 546.621 1264.02 686.767 1228.11 847.423C1202.6 981.969 1285.13 1161.79 1144.69 1273.55C1034.12 1361.46 686.087 1343.23 528.481 1281.92Z" stroke="#C4D1FF" stroke-width="1.20365" stroke-miterlimit="10"/>
<path d="M517.534 1280.31C334.419 1212.74 230.918 1055.31 195.891 924.279C178.524 849.836 208.167 593.876 300.707 410.886C303.437 405.501 306.156 400.142 308.929 394.805C385.874 246.524 526.515 143.644 665.166 134.963C780.157 111.885 1081.46 266.9 1256.78 388.84C1282.34 405.971 1304.36 421.815 1321.49 435.76C1450.46 542.571 1256.3 683.835 1222.25 843.425C1197.24 980.062 1286.43 1164.04 1143.58 1277.72C1033.39 1365.34 676.66 1343.67 517.534 1280.31Z" stroke="#C2CFFF" stroke-width="1.20365" stroke-miterlimit="10"/>
<path d="M506.594 1278.69C324.613 1209.31 230.025 1050 197.853 924.568C181.396 851.164 204.058 592.284 299.479 406.095C302.252 400.68 305.047 395.289 307.884 389.947C386.136 242.379 534.559 140.662 674.765 134.873C787.564 116.193 1090.9 270.028 1263.77 388.26C1289.4 405.202 1311.37 420.842 1328.32 434.554C1454.75 538.534 1248.58 680.898 1216.37 839.401C1191.84 978.126 1287.7 1166.27 1142.45 1281.89C1032.66 1369.21 667.239 1344.09 506.594 1278.69Z" stroke="#C0CDFF" stroke-width="1.20365" stroke-miterlimit="10"/>
<path d="M495.648 1277.08C314.787 1205.88 229.127 1044.7 199.817 924.891C184.271 852.525 199.937 590.721 298.267 401.343C301.097 395.904 303.948 390.489 306.856 385.128C386.401 238.268 542.624 137.706 684.366 134.816C794.967 120.549 1100.34 273.172 1270.77 387.719C1296.46 404.468 1318.41 419.908 1335.17 433.375C1459.06 534.518 1240.88 677.987 1210.51 835.422C1186.47 976.215 1288.99 1168.51 1141.34 1286.05C1031.94 1373.1 657.811 1344.54 495.648 1277.08Z" stroke="#BFCBFF" stroke-width="1.20365" stroke-miterlimit="10"/>
<path d="M484.693 1275.45C304.948 1202.45 228.22 1039.39 201.765 925.175C187.129 853.847 195.774 589.107 297.044 396.538C299.917 391.069 302.838 385.636 305.816 380.256C386.641 234.098 550.679 134.698 693.964 134.726C802.373 124.858 1109.79 276.287 1277.76 387.125C1303.53 403.685 1325.42 418.935 1342 432.138C1463.34 530.443 1233.14 675.012 1204.64 831.372C1181.11 974.29 1290.27 1170.72 1140.22 1290.22C1031.21 1376.97 648.384 1344.98 484.693 1275.45Z" stroke="#BDC9FF" stroke-width="1.20365" stroke-miterlimit="10"/>
<path d="M473.748 1273.84C295.124 1199.03 227.322 1034.09 203.717 925.492C189.991 855.202 191.62 587.513 295.82 391.779C298.749 386.287 301.727 380.829 304.78 375.417C386.877 229.943 558.731 131.735 703.572 134.655C809.783 129.199 1119.24 279.435 1284.75 386.564C1310.58 402.931 1332.45 417.981 1348.84 430.939C1467.65 526.399 1225.43 672.067 1198.79 827.373C1175.74 972.378 1291.55 1172.96 1139.09 1294.38C1030.48 1380.85 638.958 1345.42 473.748 1273.84Z" stroke="#BBC8FF" stroke-width="1.20365" stroke-miterlimit="10"/>
<path d="M462.806 1272.22C285.317 1195.6 226.429 1028.77 205.678 925.78C192.849 856.523 187.442 585.894 294.605 386.993C297.577 381.471 300.625 375.994 303.748 370.564C387.111 225.787 566.793 128.745 713.178 134.583C817.197 133.527 1128.7 282.569 1291.74 386.002C1317.64 402.194 1339.47 417.026 1355.68 429.738C1471.95 522.362 1217.72 669.135 1192.93 823.36C1170.37 970.466 1292.84 1175.2 1137.97 1298.55C1029.74 1384.74 629.53 1345.86 462.806 1272.22Z" stroke="#B9C6FF" stroke-width="1.20365" stroke-miterlimit="10"/>
<path d="M451.858 1270.61C275.49 1192.18 225.529 1023.47 207.64 926.102C195.722 857.883 183.019 584.146 293.391 382.239C296.407 376.688 299.511 371.187 302.718 365.743C387.167 221.529 574.851 125.801 722.778 134.526C824.599 137.881 1138.15 285.717 1298.74 385.447C1324.71 401.445 1346.51 416.077 1362.52 428.539C1476.26 518.331 1210 666.197 1187.07 819.361C1165 968.54 1294.13 1177.43 1136.85 1302.73C1029 1388.62 620.107 1346.28 451.858 1270.61Z" stroke="#B8C4FF" stroke-width="1.20365" stroke-miterlimit="10"/>
<path d="M1181.22 815.35C1159.63 966.629 1295.42 1179.67 1135.73 1306.89C1028.27 1392.5 610.68 1346.72 440.918 1268.99C265.665 1188.75 224.642 1018.15 209.603 926.392C198.297 857.389 178.017 567.461 301.693 360.878C387.564 217.439 582.92 122.799 732.396 134.428C848.42 143.453 1257.38 340.893 1369.37 427.327C1480.56 514.281 1202.29 663.253 1181.22 815.336L1181.22 815.35Z" stroke="#B6C2FF" stroke-width="1.20365" stroke-miterlimit="10"/>
</g>
</svg>
