<svg width="20" height="20" viewBox="0 0 33 28" fill="none" xmlns="http://www.w3.org/2000/svg">
<path d="M16.5043 20.4459C22.2643 20.4459 26.9338 16.9537 26.9338 12.6459C26.9338 8.33807 22.2643 4.84589 16.5043 4.84589C10.7442 4.84589 6.07471 8.33807 6.07471 12.6459C6.07471 16.9537 10.7442 20.4459 16.5043 20.4459Z" fill="#65F6A0"/>
<path d="M10.6866 0.30957H2.43111C1.08702 0.30957 0 1.12253 0 2.12774V8.30184C0 8.58198 0.521459 8.64789 0.64632 8.37874C2.34296 4.85775 6.08144 2.06183 10.7894 0.792951C11.142 0.699571 11.0612 0.30957 10.6866 0.30957Z" fill="#494949"/>
<path d="M33.0003 8.29549V2.12139C33.0003 1.11618 31.9132 0.303223 30.5691 0.303223H22.3136C21.939 0.303223 21.8509 0.693223 22.2108 0.786604C26.9188 2.05548 30.6573 4.8514 32.3539 8.37239C32.4788 8.63605 33.0003 8.57563 33.0003 8.29549Z" fill="#494949"/>
<path d="M0 16.9964V23.1705C0 24.1757 1.08702 24.9887 2.43111 24.9887H10.6866C11.0612 24.9887 11.1493 24.5987 10.7894 24.5053C6.08144 23.2364 2.34296 20.4405 0.64632 16.9195C0.521459 16.6558 0 16.7163 0 16.9964Z" fill="#494949"/>
<path d="M29.7315 24.9832C31.5366 24.9832 33 23.8888 33 22.5388C33 21.1888 31.5366 20.0944 29.7315 20.0944C27.9264 20.0944 26.4631 21.1888 26.4631 22.5388C26.4631 23.8888 27.9264 24.9832 29.7315 24.9832Z" fill="#4B71FF"/>
</svg>
