<?xml version="1.0" encoding="UTF-8"?><svg id="Camada_2" xmlns="http://www.w3.org/2000/svg" viewBox="0 0 85.3 85.3"><defs><style>.cls-1{fill:#315dff;}.cls-2{fill:#494949;}.cls-3{fill:#0ff76d;}.cls-4{fill:#d2d2d2;}</style></defs><g id="Camada_1-2"><g><g><path class="cls-4" d="M22,0H5C2.24,0,0,2.24,0,5V22c0,.77,1.07,.95,1.33,.22C4.82,12.51,12.51,4.82,22.22,1.33,22.94,1.07,22.77,0,22,0Z"/><path class="cls-4" d="M67.93,5v3.38c0,.89-.72,1.61-1.61,1.61h-5.33c-1.2,0-2.38-.43-3.25-1.25-3.41-3.24-7.51-5.79-12.04-7.41-.72-.26-.55-1.31,.22-1.31h17.02c2.74,0,4.99,2.25,4.99,4.99Z"/><path class="cls-4" d="M9.98,60.98v5.34c0,.89-.72,1.61-1.61,1.61h-3.38C2.24,67.92,0,65.68,0,62.93v-17.01c0-.77,1.06-.94,1.33-.21,1.63,4.53,4.17,8.62,7.4,12.03,.82,.87,1.24,2.04,1.24,3.24Z"/></g><g><circle class="cls-3" cx="51.34" cy="51.34" r="21.46"/><g><path class="cls-2" d="M39.36,17.37H22.37c-2.76,0-5,2.24-5,5v16.99c0,.78,1.07,.95,1.33,.22,3.49-9.69,11.18-17.38,20.88-20.88,.73-.26,.56-1.33-.22-1.33Z"/><path class="cls-2" d="M85.3,39.36V22.37c0-2.76-2.24-5-5-5h-16.99c-.78,0-.95,1.07-.22,1.33,9.69,3.49,17.38,11.18,20.88,20.88,.26,.73,1.33,.56,1.33-.22Z"/><path class="cls-2" d="M17.37,63.31v16.99c0,2.76,2.24,5,5,5h16.99c.78,0,.95-1.07,.22-1.33-9.69-3.49-17.38-11.18-20.88-20.88-.26-.73-1.33-.56-1.33,.22Z"/></g><circle class="cls-1" cx="78.56" cy="78.56" r="6.73"/></g></g></g></svg>
