<svg width="24" height="24" viewBox="0 0 24 24" fill="none" xmlns="http://www.w3.org/2000/svg">
<g clip-path="url(#clip0_1997_10996)">
<path d="M12 24C18.6274 24 24 18.6274 24 12C24 5.37258 18.6274 0 12 0C5.37258 0 0 5.37258 0 12C0 18.6274 5.37258 24 12 24Z" fill="#0072CE"/>
<path d="M17.6657 4.7998C17.1324 4.7998 16.6372 5.07632 16.3579 5.53088L13.3479 9.9998C13.2498 10.1471 13.2896 10.3456 13.4369 10.4437C13.5563 10.5233 13.7142 10.5135 13.823 10.4199L16.7858 7.85006C16.835 7.80576 16.9109 7.81027 16.9552 7.8595C16.9753 7.88206 16.986 7.91119 16.986 7.94114V15.9871C16.986 16.0535 16.9322 16.1069 16.8657 16.1069C16.83 16.1069 16.7964 16.0913 16.7739 16.0638L7.81781 5.34299C7.52613 4.99878 7.09783 4.80022 6.64697 4.7998H6.33395C5.4868 4.7998 4.80005 5.48658 4.80005 6.33376V17.6658C4.80005 18.513 5.4868 19.1998 6.33395 19.1998C6.86727 19.1998 7.36244 18.9233 7.64181 18.4687L10.6518 13.9998C10.7498 13.8525 10.71 13.654 10.5627 13.5559C10.4434 13.4763 10.2854 13.4862 10.1767 13.5797L7.21393 16.1496C7.1647 16.1939 7.0888 16.1893 7.0445 16.1401C7.02439 16.1175 7.01373 16.0884 7.01414 16.0585V8.01048C7.01414 7.94401 7.06788 7.89068 7.13434 7.89068C7.16962 7.89068 7.20367 7.90627 7.22623 7.93376L16.1811 18.6566C16.4727 19.0008 16.901 19.1994 17.3519 19.1998H17.6649C18.5121 19.2002 19.1992 18.5139 19.2 17.6667V6.33376C19.2 5.48658 18.5129 4.7998 17.6657 4.7998Z" fill="white"/>
</g>
<defs>
<clipPath id="clip0_1997_10996">
<rect width="24" height="24" fill="white"/>
</clipPath>
</defs>
</svg>
