<svg width="89" height="95" viewBox="0 0 89 95" fill="none" xmlns="http://www.w3.org/2000/svg">
<g filter="url(#filter0_dd_485_16012)">
<path d="M26.3059 29.2627H26.3149C26.3149 29.1538 26.3059 29.0409 26.3059 28.932C26.3059 22.2584 31.7261 16.847 38.4142 16.847C45.1023 16.847 50.5226 22.2584 50.5226 28.932C50.5226 29.045 50.518 29.1538 50.5135 29.2627H50.5226V43.372H55.0236L55.0236 29.0329H55.01C55.01 28.8837 55.0236 28.7345 55.0236 28.5853C55.0236 19.5446 47.6789 12.2178 38.6225 12.2178C29.5661 12.2178 22.2214 19.5446 22.2214 28.5853C22.2214 28.7345 22.2305 28.8837 22.235 29.0329H22.2214V43.372H26.3059V29.2627Z" fill="#77D3E7" stroke="#47C6E2" stroke-width="0.537334" stroke-miterlimit="10"/>
<path d="M24.9923 28.0449H25.0014C25.0014 27.9361 24.9923 27.8231 24.9923 27.7143C24.9923 21.0407 31.0691 15.6292 38.5632 15.6292C46.0574 15.6292 52.1342 21.0407 52.1342 27.7143C52.1342 27.8272 52.1297 27.9361 52.1251 28.0449H52.1342V42.1543H57.1741V27.8151H57.1605C57.165 27.6659 57.1741 27.5167 57.1741 27.3675C57.1786 18.3269 48.9464 11 38.7942 11C28.642 11 20.4143 18.3269 20.4143 27.3675C20.4143 27.5167 20.4234 27.6659 20.4279 27.8151H20.4143L20.4143 42.1543H24.9923V28.0449Z" fill="#B0E0EB" stroke="#47C6E2" stroke-width="0.537334" stroke-miterlimit="10"/>
<path d="M60.7104 37.5771H17.2896C13.816 37.5771 11 40.0848 11 43.1781L11 67.9532C11 71.0465 13.816 73.5542 17.2896 73.5542H60.7104C64.184 73.5542 67 71.0465 67 67.9532V43.1781C67 40.0848 64.184 37.5771 60.7104 37.5771Z" fill="#B0E0EB" stroke="#47C6E2" stroke-width="0.537334" stroke-miterlimit="10"/>
<path d="M43.4586 52.7663C43.4586 50.6855 41.5659 49 39.2293 49C36.8928 49 35 50.6855 35 52.7663C35 54.105 35.7834 55.2744 36.9652 55.9438V60.5851C36.9652 61.698 37.9795 62.6053 39.2338 62.6053C40.4882 62.6053 41.5025 61.702 41.5025 60.5851V55.9438C42.6798 55.2744 43.4677 54.105 43.4677 52.7663H43.4586Z" fill="#47C6E2" stroke="#47C6E2" stroke-width="0.537334" stroke-miterlimit="10"/>
</g>
<defs>
<filter id="filter0_dd_485_16012" x="0.337096" y="0.337096" width="88.0725" height="94.6272" filterUnits="userSpaceOnUse" color-interpolation-filters="sRGB">
<feFlood flood-opacity="0" result="BackgroundImageFix"/>
<feColorMatrix in="SourceAlpha" type="matrix" values="0 0 0 0 0 0 0 0 0 0 0 0 0 0 0 0 0 0 127 0" result="hardAlpha"/>
<feOffset dx="2.14934" dy="2.14934"/>
<feComposite in2="hardAlpha" operator="out"/>
<feColorMatrix type="matrix" values="0 0 0 0 0.278431 0 0 0 0 0.776471 0 0 0 0 0.886275 0 0 0 1 0"/>
<feBlend mode="normal" in2="BackgroundImageFix" result="effect1_dropShadow_485_16012"/>
<feColorMatrix in="SourceAlpha" type="matrix" values="0 0 0 0 0 0 0 0 0 0 0 0 0 0 0 0 0 0 127 0" result="hardAlpha"/>
<feOffset dx="5.37334" dy="5.37334"/>
<feGaussianBlur stdDeviation="7.88384"/>
<feComposite in2="hardAlpha" operator="out"/>
<feColorMatrix type="matrix" values="0 0 0 0 0.278431 0 0 0 0 0.776471 0 0 0 0 0.886275 0 0 0 0.5 0"/>
<feBlend mode="normal" in2="effect1_dropShadow_485_16012" result="effect2_dropShadow_485_16012"/>
<feBlend mode="normal" in="SourceGraphic" in2="effect2_dropShadow_485_16012" result="shape"/>
</filter>
</defs>
</svg>
