<svg width="1595" height="1572" viewBox="0 0 1595 1572" fill="none" xmlns="http://www.w3.org/2000/svg">
<g opacity="0.8">
<path d="M1239.02 1425.27C1074.45 1582.18 783.676 1414.62 508.987 1216.01C233.828 1016.2 84.5347 903.591 154.523 672.864C225.248 440.451 506.817 198.641 734.196 200.425C961.556 202.221 1314.16 285.878 1455.31 558.201C1508.54 659.944 1325.17 883.586 1306.49 997.561C1275.07 1189.44 1341.5 1327.13 1239 1425.27L1239.02 1425.27Z" stroke="#EBFBFF" stroke-width="1.20365" stroke-miterlimit="10"/>
<path d="M746.08 200.908C972.453 204.757 1315.73 291.461 1453.18 558.101C1505.32 658.838 1329.19 884.66 1308.36 1002.53C1307.41 1007.88 1306.57 1013.19 1305.78 1018.45C1278.68 1201.45 1330.39 1333.96 1228.77 1426.45C1066.04 1578.4 773.222 1412.34 501.589 1217.41C473.429 1197.22 446.713 1177.94 421.56 1159.38C201.479 996.778 100.273 882.288 161.26 676.474C189.9 577.652 248.164 475.717 333.782 391.673C450.381 277.244 611.387 197.833 746.08 200.908Z" stroke="#E9F9FF" stroke-width="1.20365" stroke-miterlimit="10"/>
<path d="M757.972 201.376C983.353 207.294 1317.3 297.025 1451.06 557.986C1502.11 657.717 1333.25 885.729 1310.21 1007.49C1309.19 1012.87 1308.29 1018.21 1307.44 1023.51C1278.22 1205.76 1322.12 1338.05 1218.51 1427.63C1057.64 1574.63 762.752 1410.07 494.178 1218.82C465.979 1198.82 439.302 1179.75 414.387 1161.43C197.348 1001.59 108.856 884.541 167.981 680.096C195.86 579.097 246.533 473.473 334.497 387.096C450.707 273.011 621.415 196.3 757.972 201.376Z" stroke="#E8F7FF" stroke-width="1.20365" stroke-miterlimit="10"/>
<path d="M769.857 201.859C994.252 209.83 1318.86 302.604 1448.92 557.897C1498.88 656.626 1337.31 886.816 1312.04 1012.47C1310.95 1017.88 1309.99 1023.25 1309.08 1028.59C1278.02 1210.14 1313.82 1342.18 1208.22 1428.82C1049.2 1570.84 752.261 1407.81 486.727 1220.24C458.483 1200.46 431.86 1181.59 407.168 1163.51C193.211 1006.41 117.451 886.798 174.699 683.716C201.818 580.542 244.896 471.244 335.21 382.519C451.046 268.781 631.46 194.754 769.857 201.859Z" stroke="#E6F5FF" stroke-width="1.20365" stroke-miterlimit="10"/>
<path d="M781.746 202.326C1005.15 212.365 1320.43 308.167 1446.8 557.781C1495.67 655.504 1341.43 887.885 1313.9 1017.42C1312.74 1022.86 1311.72 1028.25 1310.74 1033.63C1277.88 1214.47 1305.55 1346.27 1197.96 1429.98C1040.78 1567.05 741.797 1405.51 479.319 1221.62C451.016 1202.05 424.462 1183.4 400.008 1165.57C189.079 1011.22 126.032 889.049 181.438 687.326C207.8 581.96 243.283 468.988 335.947 377.915C451.386 264.55 641.491 193.204 781.746 202.326Z" stroke="#E4F4FF" stroke-width="1.20365" stroke-miterlimit="10"/>
<path d="M793.631 202.808C1016.04 214.917 1321.99 313.746 1444.66 557.696C1492.45 654.413 1345.56 888.974 1315.74 1022.39C1314.52 1027.86 1313.44 1033.31 1312.4 1038.7C1277.74 1218.84 1297.27 1350.38 1187.71 1431.16C1032.37 1563.26 731.34 1403.25 471.922 1223.03C443.574 1203.67 417.074 1185.23 392.844 1167.64C184.942 1016.04 134.628 891.306 188.157 690.946C213.758 583.405 241.631 466.754 336.66 373.337C451.725 260.32 651.522 191.654 793.631 202.808Z" stroke="#E2F2FF" stroke-width="1.20365" stroke-miterlimit="10"/>
<path d="M805.521 203.275C1026.93 217.433 1323.56 319.309 1442.54 557.58C1489.23 653.291 1349.75 890.03 1317.59 1027.36C1316.31 1032.86 1315.16 1038.33 1314.06 1043.76C1277.64 1223.2 1289 1354.48 1177.44 1432.33C1023.95 1559.48 720.868 1400.98 464.49 1224.44C436.087 1205.28 409.656 1187.05 385.645 1169.71C180.794 1020.84 143.205 893.573 194.88 694.551C219.705 584.83 240.002 464.493 337.377 368.744C452.064 256.09 661.552 190.104 805.521 203.275Z" stroke="#E1F0FF" stroke-width="1.20365" stroke-miterlimit="10"/>
<path d="M817.406 203.759C1037.83 219.985 1325.12 324.904 1440.4 557.492C1485.99 652.196 1353.93 891.118 1319.44 1032.34C1318.08 1037.87 1316.88 1043.37 1315.72 1048.85C1277.53 1227.58 1280.72 1358.6 1167.17 1433.54C1015.52 1555.71 710.392 1398.72 457.07 1225.87C428.622 1206.92 402.245 1188.9 378.457 1171.81C176.634 1025.69 151.778 895.856 201.591 698.203C225.655 586.305 238.358 462.294 338.082 364.197C452.403 251.861 671.579 188.57 817.406 203.759Z" stroke="#DFEEFF" stroke-width="1.20365" stroke-miterlimit="10"/>
<path d="M829.295 204.225C1048.72 222.52 1326.69 330.467 1438.27 557.376C1482.79 651.079 1358.16 892.202 1321.29 1037.28C1319.88 1042.85 1318.62 1048.39 1317.38 1053.89C1277.47 1231.92 1272.44 1362.69 1156.93 1434.68C1007.12 1551.91 699.943 1396.43 449.68 1227.24C421.173 1208.5 394.865 1190.7 371.319 1173.84C172.543 1030.46 160.4 898.071 208.351 701.786C231.659 587.697 236.747 460.023 338.837 359.582C452.742 247.63 681.608 187.02 829.295 204.225Z" stroke="#DDECFF" stroke-width="1.20365" stroke-miterlimit="10"/>
<path d="M841.185 204.695C1059.62 225.058 1328.25 336.032 1436.15 557.262C1479.58 649.959 1362.41 893.262 1323.15 1042.23C1321.68 1047.81 1320.34 1053.4 1319.05 1058.93C1277.42 1236.27 1264.18 1366.78 1146.67 1435.85C998.699 1548.11 689.476 1394.14 442.269 1228.64C413.717 1210.12 387.463 1192.53 364.141 1175.91C168.412 1035.27 168.997 900.329 215.076 705.393C237.623 589.129 235.12 457.765 339.56 354.976C453.082 243.402 691.64 185.472 841.185 204.695Z" stroke="#DCEAFF" stroke-width="1.20365" stroke-miterlimit="10"/>
<path d="M853.071 205.177C1070.52 227.595 1329.82 341.612 1434.01 557.173C1476.34 648.864 1366.68 894.375 1324.98 1047.22C1323.45 1052.84 1322.06 1058.45 1320.69 1064.01C1277.38 1240.66 1255.88 1370.9 1136.38 1437.05C990.256 1544.35 678.985 1391.89 434.818 1230.06C406.222 1211.76 380.027 1194.36 356.923 1177.99C164.226 1040.1 177.54 902.603 221.756 709.036C243.542 590.595 233.445 455.557 340.235 350.42C453.407 239.168 701.671 183.923 853.071 205.177Z" stroke="#DAE9FF" stroke-width="1.20365" stroke-miterlimit="10"/>
<path d="M864.975 205.648C1081.42 230.129 1331.4 347.178 1431.9 557.061C1473.14 647.746 1371.01 895.469 1326.85 1052.18C1325.25 1057.82 1323.79 1063.46 1322.37 1069.07C1277.37 1245.02 1247.62 1375 1126.14 1438.21C981.851 1540.55 668.532 1389.6 427.425 1231.45C398.773 1213.34 372.643 1196.17 349.762 1180.05C160.108 1044.91 186.14 904.844 228.513 712.633C249.539 592.017 231.85 453.29 340.986 345.82C453.745 234.937 711.701 182.372 864.975 205.648Z" stroke="#D8E7FF" stroke-width="1.20365" stroke-miterlimit="10"/>
<path d="M876.859 206.131C1092.31 232.681 1332.96 352.758 1429.77 556.977C1469.92 646.655 1375.32 896.594 1328.69 1057.16C1327.04 1062.83 1325.52 1068.51 1324.01 1074.14C1277.36 1249.41 1239.33 1379.1 1115.86 1439.4C973.426 1536.77 658.055 1387.35 420.003 1232.88C391.307 1214.98 365.23 1198.02 342.588 1182.15C155.98 1049.75 194.737 907.15 235.238 716.289C255.491 593.477 230.204 451.091 341.705 341.277C454.084 230.708 721.726 180.838 876.859 206.131Z" stroke="#D6E5FF" stroke-width="1.20365" stroke-miterlimit="10"/>
<path d="M888.75 206.599C1103.22 235.203 1334.53 358.322 1427.65 556.862C1466.72 645.539 1379.7 897.687 1330.56 1062.11C1328.86 1067.82 1327.27 1073.52 1325.69 1079.18C1277.41 1253.76 1231.07 1383.2 1105.62 1440.55C965.027 1532.97 647.627 1385.04 412.601 1234.25C383.846 1216.57 357.838 1199.82 335.423 1184.17C151.847 1054.51 203.332 909.358 241.976 719.85C261.468 594.862 228.59 448.786 342.437 336.64C454.429 226.463 731.758 179.288 888.75 206.599Z" stroke="#D5E3FF" stroke-width="1.20365" stroke-miterlimit="10"/>
<path d="M900.635 207.081C1114.11 237.753 1336.09 363.9 1425.5 556.772C1463.48 644.442 1384.04 898.82 1332.39 1067.08C1330.64 1072.82 1328.98 1078.56 1327.34 1084.25C1277.43 1258.14 1222.78 1387.31 1095.34 1441.74C956.588 1529.19 637.136 1382.79 405.169 1235.66C376.37 1218.19 350.416 1201.65 328.224 1186.24C147.695 1059.33 211.894 911.62 248.675 723.48C267.407 596.317 226.934 446.567 343.131 332.072C454.768 222.232 741.789 177.738 900.635 207.081Z" stroke="#D3E1FF" stroke-width="1.20365" stroke-miterlimit="10"/>
<path d="M912.525 207.548C1125 240.285 1337.66 369.463 1423.38 556.656C1460.27 643.321 1388.44 899.936 1334.24 1072.04C1332.43 1077.82 1330.7 1083.58 1329 1089.31C1277.49 1262.53 1214.51 1391.4 1085.08 1442.91C948.164 1525.41 626.664 1380.52 397.753 1237.08C368.898 1219.8 343.013 1203.48 321.056 1188.33C143.559 1064.15 220.486 913.891 255.409 727.105C273.38 597.765 225.316 444.326 343.863 327.483C455.108 218.002 751.819 176.188 912.525 207.548Z" stroke="#D1DFFF" stroke-width="1.20365" stroke-miterlimit="10"/>
<path d="M924.41 208.032C1135.89 242.837 1339.22 375.043 1421.25 556.572C1457.04 642.231 1392.86 901.092 1336.09 1077.02C1334.22 1082.83 1332.43 1088.63 1330.65 1094.39C1277.55 1266.94 1206.22 1395.54 1074.82 1444.11C939.755 1521.63 616.207 1378.25 390.336 1238.49C361.437 1221.43 335.606 1205.32 313.872 1190.41C139.417 1068.99 229.077 916.164 262.124 730.742C279.338 599.211 223.66 442.108 344.572 322.922C455.447 213.773 761.845 174.654 924.41 208.032Z" stroke="#D0DEFF" stroke-width="1.20365" stroke-miterlimit="10"/>
<path d="M936.301 208.499C1146.79 245.358 1340.81 380.611 1419.12 556.457C1453.83 641.109 1397.3 902.221 1337.95 1081.97C1336.02 1087.81 1334.17 1093.64 1332.32 1099.43C1277.64 1271.31 1197.94 1399.61 1064.56 1445.27C931.336 1517.84 605.74 1375.97 382.929 1239.88C353.985 1223.03 328.208 1207.12 306.698 1192.46C135.29 1073.78 237.664 918.401 268.852 734.332C285.302 600.64 222.048 439.852 345.305 318.333C455.787 209.543 771.877 173.104 936.301 208.499Z" stroke="#CEDCFF" stroke-width="1.20365" stroke-miterlimit="10"/>
<path d="M948.185 208.981C1157.69 247.909 1342.37 386.189 1416.98 556.367C1450.59 640.014 1401.75 903.384 1339.78 1086.95C1337.79 1092.82 1335.87 1098.67 1333.96 1104.5C1277.73 1275.72 1189.65 1403.72 1054.28 1446.45C922.892 1514.07 595.248 1373.71 375.493 1241.3C346.49 1224.66 320.782 1208.97 299.494 1194.55C131.119 1078.61 246.221 920.679 275.563 737.982C291.264 602.07 220.415 437.607 346.023 313.74C456.111 205.309 781.907 171.555 948.185 208.981Z" stroke="#CCDAFF" stroke-width="1.20365" stroke-miterlimit="10"/>
<path d="M960.074 209.45C1168.59 250.446 1343.93 391.769 1414.85 556.253C1447.39 638.898 1406.22 904.537 1341.64 1091.92C1339.61 1097.82 1337.62 1103.71 1335.64 1109.56C1277.87 1280.12 1181.39 1407.83 1044.05 1447.62C914.506 1510.27 584.814 1371.42 368.114 1242.7C339.066 1226.27 313.417 1210.78 292.368 1196.6C127.039 1083.41 254.854 922.915 282.339 741.572C297.24 603.505 218.781 435.364 346.754 309.153C456.45 201.08 791.937 170.006 960.074 209.45Z" stroke="#CBD8FF" stroke-width="1.20365" stroke-miterlimit="10"/>
<path d="M971.96 209.932C1179.47 252.977 1345.49 397.347 1412.72 556.167C1444.17 637.806 1410.73 905.717 1343.49 1096.89C1341.4 1102.83 1339.35 1108.75 1337.29 1114.65C1277.99 1284.56 1173.11 1411.95 1033.77 1448.83C906.074 1506.52 574.334 1369.18 360.679 1244.12C331.576 1227.89 305.991 1212.63 285.165 1198.69C122.864 1088.25 263.427 925.197 289.039 745.202C303.199 604.949 217.149 433.118 347.468 304.575C456.789 196.849 801.968 168.456 971.96 209.932Z" stroke="#C9D6FF" stroke-width="1.20365" stroke-miterlimit="10"/>
<path d="M983.851 210.4C1190.37 255.514 1347.06 402.912 1410.6 556.053C1440.96 636.685 1415.25 906.882 1345.35 1101.84C1343.2 1107.81 1341.09 1113.76 1338.96 1119.69C1278.13 1288.96 1164.84 1416.04 1023.52 1449.97C897.665 1502.69 563.873 1366.88 353.273 1245.51C324.125 1229.49 298.595 1214.44 277.992 1200.74C118.737 1093.04 272.014 927.435 295.764 748.808C309.164 606.379 215.514 430.889 348.188 299.982C457.131 192.62 811.996 166.922 983.851 210.4Z" stroke="#C7D4FF" stroke-width="1.20365" stroke-miterlimit="10"/>
<path d="M995.74 210.868C1201.27 258.05 1348.63 408.476 1408.47 555.934C1437.73 635.56 1419.78 908.052 1347.18 1106.79C1345 1112.79 1342.82 1118.77 1340.61 1124.73C1278.28 1293.36 1156.55 1420.11 1013.24 1451.13C889.229 1498.89 553.393 1364.57 345.849 1246.89C316.642 1231.08 291.18 1216.24 270.801 1202.79C114.593 1097.83 280.584 929.668 302.476 752.395C315.121 607.824 213.881 428.645 348.915 295.409C457.469 188.39 822.041 165.377 995.74 210.868Z" stroke="#C5D3FF" stroke-width="1.20365" stroke-miterlimit="10"/>
<path d="M1007.62 211.349C1212.16 260.6 1350.19 414.053 1406.33 555.847C1434.5 634.468 1424.33 909.259 1349.03 1111.78C1346.78 1117.82 1344.54 1123.83 1342.27 1129.81C1278.43 1297.81 1148.27 1424.24 1002.98 1452.34C880.815 1495.13 542.927 1362.34 338.428 1248.32C309.176 1232.73 283.773 1218.08 263.627 1204.89C110.452 1102.67 289.186 931.958 309.201 756.049C321.083 609.252 212.248 426.399 349.632 290.816C457.808 184.159 832.071 163.826 1007.62 211.349Z" stroke="#C4D1FF" stroke-width="1.20365" stroke-miterlimit="10"/>
<path d="M1019.52 211.817C1223.07 263.122 1351.76 419.618 1404.21 555.733C1431.3 633.351 1428.9 910.457 1350.88 1116.73C1348.58 1122.8 1346.28 1128.84 1343.93 1134.87C1278.62 1302.24 1140 1428.35 992.723 1453.5C872.397 1491.34 532.461 1360.05 331.017 1249.72C301.725 1234.33 276.371 1219.9 256.449 1206.95C106.316 1107.49 297.768 934.211 315.925 759.655C327.031 610.678 210.601 424.15 350.346 286.238C458.148 179.93 842.102 162.277 1019.52 211.817Z" stroke="#C2CFFF" stroke-width="1.20365" stroke-miterlimit="10"/>
<path d="M1031.4 212.299C1233.94 265.668 1353.32 425.196 1402.08 555.647C1428.08 632.26 1433.47 911.688 1352.74 1121.71C1350.4 1127.82 1348.03 1133.9 1345.6 1139.94C1278.81 1306.7 1131.74 1432.46 982.468 1454.69C863.983 1487.58 522.004 1357.79 323.615 1251.14C294.264 1235.96 268.979 1221.75 249.284 1209.02C102.183 1112.3 306.364 936.467 322.674 763.284C333.019 612.131 208.984 421.91 351.079 281.65C458.487 175.699 852.129 160.742 1031.4 212.299Z" stroke="#C0CDFF" stroke-width="1.20365" stroke-miterlimit="10"/>
<path d="M1043.29 212.768C1244.84 268.206 1354.89 430.761 1399.94 555.529C1424.85 631.135 1438.06 912.891 1354.58 1126.66C1352.18 1132.8 1349.75 1138.91 1347.25 1144.98C1279 1311.13 1123.45 1436.54 972.206 1455.86C855.566 1483.77 511.549 1355.51 316.19 1252.52C286.795 1237.55 261.564 1223.55 242.092 1211.07C98.0383 1117.09 314.932 938.701 329.385 766.871C338.98 613.562 207.349 419.666 351.79 277.073C458.81 171.466 862.158 159.193 1043.29 212.768Z" stroke="#BFCBFF" stroke-width="1.20365" stroke-miterlimit="10"/>
<path d="M1055.19 213.254C1255.76 270.745 1356.47 436.343 1397.83 555.447C1421.64 630.048 1442.7 914.138 1356.44 1131.65C1353.99 1137.83 1351.49 1143.98 1348.92 1150.07C1279.22 1315.61 1115.18 1440.68 961.954 1457.05C847.155 1480.01 501.09 1353.26 308.787 1253.96C279.332 1239.2 254.174 1225.39 234.937 1213.17C93.9294 1121.94 323.552 940.996 336.127 770.529C344.94 615.005 205.73 417.44 352.51 272.48C459.152 167.236 872.19 157.643 1055.19 213.254Z" stroke="#BDC9FF" stroke-width="1.20365" stroke-miterlimit="10"/>
<path d="M1067.08 213.721C1266.65 273.281 1358.03 441.907 1395.71 555.332C1418.43 628.926 1447.32 915.367 1358.29 1136.6C1355.79 1142.81 1353.23 1148.99 1350.58 1155.12C1279.44 1320.08 1106.91 1444.77 951.687 1458.22C838.734 1476.21 490.621 1350.97 301.373 1255.36C271.873 1240.81 246.77 1227.22 227.756 1215.24C89.776 1126.75 332.127 943.262 342.849 774.135C350.901 616.435 204.096 415.195 353.237 267.906C459.489 163.005 882.219 156.093 1067.08 213.721Z" stroke="#BBC8FF" stroke-width="1.20365" stroke-miterlimit="10"/>
<path d="M1078.97 214.204C1277.53 275.829 1359.6 447.487 1393.58 555.248C1415.22 627.84 1451.97 916.621 1360.14 1141.58C1357.59 1147.83 1354.96 1154.03 1352.24 1160.2C1279.67 1324.56 1098.63 1448.89 941.423 1459.4C830.311 1472.44 480.15 1348.7 293.962 1256.76C264.407 1242.41 239.368 1229.04 220.577 1217.31C85.6447 1131.56 340.709 945.516 349.569 777.756C356.865 617.866 202.464 412.951 353.955 263.314C459.834 158.762 892.251 154.544 1078.97 214.204Z" stroke="#B9C6FF" stroke-width="1.20365" stroke-miterlimit="10"/>
<path d="M1090.86 214.672C1288.43 278.365 1361.17 453.05 1391.44 555.128C1411.99 626.714 1456.9 917.984 1361.98 1146.53C1359.39 1152.81 1356.7 1159.05 1353.9 1165.23C1280.1 1329.12 1090.35 1452.96 931.164 1460.56C821.896 1468.63 469.684 1346.42 286.536 1258.15C256.936 1244.02 231.952 1230.86 213.399 1219.37C81.4982 1136.37 349.306 947.772 356.294 781.362C362.824 619.31 200.833 410.706 354.674 258.721C460.175 154.532 902.278 153.009 1090.86 214.672Z" stroke="#B8C4FF" stroke-width="1.20365" stroke-miterlimit="10"/>
<path d="M363.011 784.982C368.785 620.739 199.199 408.461 355.401 254.148C460.512 150.302 912.307 151.46 1102.74 215.154C1299.33 280.901 1362.72 458.644 1389.31 555.043C1409.29 627.538 1464.16 935.254 1355.55 1170.32C1280.14 1333.53 1082.06 1457.1 920.889 1461.77C795.785 1465.39 335.867 1301.06 206.214 1221.45C77.3598 1141.19 357.882 950.039 363.007 784.997L363.011 784.982Z" stroke="#B6C2FF" stroke-width="1.20365" stroke-miterlimit="10"/>
</g>
</svg>
