<svg width="33" height="33" viewBox="0 0 33 33" fill="none" xmlns="http://www.w3.org/2000/svg">
<path d="M26.0407 5.00781H6.00947C5.47821 5.00781 4.96871 5.21886 4.59305 5.59451C4.21739 5.97017 4.00635 6.47967 4.00635 7.01094V14.3599C4.00635 25.5523 13.4961 29.2706 15.3991 29.8966C15.8057 30.0304 16.2445 30.0304 16.6511 29.8966C18.554 29.2706 28.0438 25.5523 28.0438 14.3599V7.01094C28.0438 6.47967 27.8328 5.97017 27.4571 5.59451C27.0815 5.21886 26.572 5.00781 26.0407 5.00781ZM22.2222 13.7464L14.8858 20.7574C14.6961 20.9358 14.4451 21.0344 14.1847 21.0328C13.9282 21.0338 13.6813 20.935 13.4961 20.7574L9.82792 17.2519C9.72618 17.1631 9.64344 17.0547 9.58466 16.9332C9.52589 16.8116 9.49231 16.6794 9.48592 16.5445C9.47954 16.4097 9.5005 16.2749 9.54753 16.1483C9.59456 16.0218 9.6667 15.906 9.75961 15.808C9.85252 15.7101 9.96428 15.6319 10.0882 15.5782C10.2121 15.5245 10.3455 15.4964 10.4805 15.4957C10.6156 15.4949 10.7494 15.5214 10.8739 15.5736C10.9984 15.6259 11.111 15.7027 11.2051 15.7996L14.1847 18.6416L20.8451 12.2942C21.0398 12.1243 21.2927 12.0362 21.5509 12.0484C21.809 12.0606 22.0525 12.1722 22.2303 12.3597C22.4081 12.5472 22.5066 12.7963 22.5051 13.0547C22.5036 13.3131 22.4022 13.561 22.2222 13.7464Z" fill="#25AE75"/>
</svg>
