<svg width="167" height="162" viewBox="0 0 167 162" fill="none" xmlns="http://www.w3.org/2000/svg">
<g filter="url(#filter0_ddd_485_15836)">
<path d="M73.2325 33.8859L31.8907 120.25C30.0703 124.053 32.0125 127.136 36.2287 127.136H82.577C86.7932 127.136 91.687 124.053 93.5074 120.25L134.849 33.8859C136.67 30.0829 134.727 27 130.511 27H84.163C79.9467 27 75.0529 30.0829 73.2325 33.8859Z" fill="#B0E0EB" stroke="#47C6E2" stroke-miterlimit="10"/>
<path d="M76.4835 35.0119L40.6505 109.868C39.5213 112.227 40.726 114.139 43.3412 114.139H87.505C90.1202 114.139 93.1555 112.227 94.2847 109.868L130.118 35.0119C131.247 32.653 130.042 30.7408 127.427 30.7408H83.2633C80.6481 30.7408 77.6127 32.653 76.4835 35.0119Z" fill="#303030" stroke="#47C6E2" stroke-miterlimit="10"/>
<path d="M60.971 123.444C62.7844 123.444 64.8892 122.118 65.6722 120.483C66.4551 118.847 65.6198 117.521 63.8064 117.521C61.993 117.521 59.8882 118.847 59.1052 120.483C58.3223 122.118 59.1576 123.444 60.971 123.444Z" fill="#77D2E6" stroke="#47C6E2" stroke-miterlimit="10"/>
</g>
<g filter="url(#filter1_ddd_485_15836)">
<path d="M41.8731 37.2314H41.8788C41.9112 37.1704 41.939 37.1071 41.9714 37.0461C43.9551 33.3074 49.0012 30.2757 53.2429 30.2757C57.4846 30.2757 59.3135 33.3074 57.3298 37.0461C57.2962 37.1094 57.261 37.1704 57.2258 37.2314H57.2315L53.0374 45.1359H55.892L60.1544 37.1026H60.1458C60.1901 37.019 60.2431 36.9354 60.2875 36.8518C62.9748 31.787 60.4947 27.6823 54.7511 27.6823C49.0074 27.6823 42.1714 31.787 39.4841 36.8518C39.4397 36.9354 39.4011 37.019 39.3596 37.1026H39.351L35.0886 45.1359H37.679L41.8731 37.2314Z" fill="#77D3E7" stroke="#47C6E2" stroke-width="0.340782" stroke-miterlimit="10"/>
<path d="M41.4019 36.5491H41.4077C41.44 36.4881 41.4678 36.4249 41.5002 36.3639C43.484 32.6251 48.9465 29.5934 53.6994 29.5934C58.4522 29.5934 60.6976 32.6251 58.7138 36.3639C58.6803 36.4271 58.645 36.4881 58.6098 36.5491H58.6155L54.4215 44.4536H57.6178L61.8802 36.4204H61.8716C61.9188 36.3368 61.9689 36.2532 62.0132 36.1696C64.7035 31.1047 61.6605 27 55.2219 27C48.7833 27 41.3872 31.1047 38.6999 36.1696C38.6555 36.2532 38.6169 36.3368 38.5754 36.4204H38.5668L34.3045 44.4536H37.2079L41.4019 36.5491Z" fill="#B0E0EB" stroke="#47C6E2" stroke-width="0.340782" stroke-miterlimit="10"/>
<path d="M61.2211 41.8895H33.6833C31.4802 41.8895 28.9489 43.2944 28.0294 45.0274L20.6649 58.9072C19.7454 60.6402 20.7859 62.045 22.989 62.045H50.5267C52.7298 62.045 55.2611 60.6402 56.1806 58.9072L63.5451 45.0274C64.4646 43.2944 63.4241 41.8895 61.2211 41.8895Z" fill="#B0E0EB" stroke="#47C6E2" stroke-width="0.340782" stroke-miterlimit="10"/>
<path d="M44.3671 49.477C44.9856 48.3114 44.2862 47.3671 42.8043 47.3671C41.3225 47.3671 39.621 48.3114 39.0025 49.477C38.6046 50.2271 38.7538 50.8822 39.3044 51.2572L37.9247 53.8574C37.5939 54.4809 37.9675 54.9892 38.763 54.9892C39.5585 54.9892 40.4703 54.4832 40.8023 53.8574L42.1819 51.2572C43.1276 50.8822 43.9749 50.2271 44.3728 49.477H44.3671Z" fill="#47C6E2" stroke="#47C6E2" stroke-width="0.340782" stroke-miterlimit="10"/>
</g>
<defs>
<filter id="filter0_ddd_485_15836" x="0.662598" y="0.54895" width="165.415" height="161.038" filterUnits="userSpaceOnUse" color-interpolation-filters="sRGB">
<feFlood flood-opacity="0" result="BackgroundImageFix"/>
<feColorMatrix in="SourceAlpha" type="matrix" values="0 0 0 0 0 0 0 0 0 0 0 0 0 0 0 0 0 0 127 0" result="hardAlpha"/>
<feOffset dx="20" dy="20"/>
<feGaussianBlur stdDeviation="5"/>
<feComposite in2="hardAlpha" operator="out"/>
<feColorMatrix type="matrix" values="0 0 0 0 0.0075 0 0 0 0 0.0286833 0 0 0 0 0.0333333 0 0 0 0.2 0"/>
<feBlend mode="normal" in2="BackgroundImageFix" result="effect1_dropShadow_485_15836"/>
<feColorMatrix in="SourceAlpha" type="matrix" values="0 0 0 0 0 0 0 0 0 0 0 0 0 0 0 0 0 0 127 0" result="hardAlpha"/>
<feOffset dx="4" dy="4"/>
<feComposite in2="hardAlpha" operator="out"/>
<feColorMatrix type="matrix" values="0 0 0 0 0.227451 0 0 0 0 0.623529 0 0 0 0 0.713726 0 0 0 1 0"/>
<feBlend mode="normal" in2="effect1_dropShadow_485_15836" result="effect2_dropShadow_485_15836"/>
<feColorMatrix in="SourceAlpha" type="matrix" values="0 0 0 0 0 0 0 0 0 0 0 0 0 0 0 0 0 0 127 0" result="hardAlpha"/>
<feOffset dy="4"/>
<feGaussianBlur stdDeviation="15"/>
<feComposite in2="hardAlpha" operator="out"/>
<feColorMatrix type="matrix" values="0 0 0 0 0.277344 0 0 0 0 0.777672 0 0 0 0 0.8875 0 0 0 0.3 0"/>
<feBlend mode="normal" in2="effect2_dropShadow_485_15836" result="effect3_dropShadow_485_15836"/>
<feBlend mode="normal" in="SourceGraphic" in2="effect3_dropShadow_485_15836" result="shape"/>
</filter>
<filter id="filter1_ddd_485_15836" x="13.5492" y="20.2573" width="89.5194" height="65.9383" filterUnits="userSpaceOnUse" color-interpolation-filters="sRGB">
<feFlood flood-opacity="0" result="BackgroundImageFix"/>
<feColorMatrix in="SourceAlpha" type="matrix" values="0 0 0 0 0 0 0 0 0 0 0 0 0 0 0 0 0 0 127 0" result="hardAlpha"/>
<feOffset dx="1.36313" dy="1.36313"/>
<feComposite in2="hardAlpha" operator="out"/>
<feColorMatrix type="matrix" values="0 0 0 0 0.278431 0 0 0 0 0.776471 0 0 0 0 0.886275 0 0 0 1 0"/>
<feBlend mode="normal" in2="BackgroundImageFix" result="effect1_dropShadow_485_15836"/>
<feColorMatrix in="SourceAlpha" type="matrix" values="0 0 0 0 0 0 0 0 0 0 0 0 0 0 0 0 0 0 127 0" result="hardAlpha"/>
<feOffset dx="3.40782" dy="3.40782"/>
<feGaussianBlur stdDeviation="5"/>
<feComposite in2="hardAlpha" operator="out"/>
<feColorMatrix type="matrix" values="0 0 0 0 0.278431 0 0 0 0 0.776471 0 0 0 0 0.886275 0 0 0 0.5 0"/>
<feBlend mode="normal" in2="effect1_dropShadow_485_15836" result="effect2_dropShadow_485_15836"/>
<feColorMatrix in="SourceAlpha" type="matrix" values="0 0 0 0 0 0 0 0 0 0 0 0 0 0 0 0 0 0 127 0" result="hardAlpha"/>
<feOffset dx="35" dy="20"/>
<feGaussianBlur stdDeviation="2"/>
<feComposite in2="hardAlpha" operator="out"/>
<feColorMatrix type="matrix" values="0 0 0 0 0 0 0 0 0 0 0 0 0 0 0 0 0 0 0.25 0"/>
<feBlend mode="normal" in2="effect2_dropShadow_485_15836" result="effect3_dropShadow_485_15836"/>
<feBlend mode="normal" in="SourceGraphic" in2="effect3_dropShadow_485_15836" result="shape"/>
</filter>
</defs>
</svg>
