<svg width="807" height="251" viewBox="0 0 807 251" fill="none" xmlns="http://www.w3.org/2000/svg">
<rect x="14.208" y="86.114" width="61.8048" height="17.6293" rx="8.81467" fill="#47C6E2"/>
<rect x="14.208" y="202.457" width="130.714" height="22.5655" rx="11.2828" fill="#47C6E2"/>
<rect x="83.1167" y="86.114" width="61.8048" height="17.6293" rx="8.81467" fill="#B0E0EB"/>
<rect x="17.76" y="148.864" width="32.6784" height="14.1035" rx="7.05173" fill="#77D3E7"/>
<rect x="55.4111" y="148.864" width="32.6784" height="14.1035" rx="7.05173" fill="#77D3E7"/>
<rect x="93.0625" y="148.864" width="32.6784" height="14.1035" rx="7.05173" fill="#77D3E7"/>
<rect x="14.208" y="119.952" width="130.714" height="17.6293" rx="3.552" fill="#B0E0EB"/>
<rect x="14.208" y="173.545" width="130.714" height="17.6293" rx="3.552" fill="#B0E0EB"/>
<path d="M61.2125 217.726V216.831H63.0226C63.4602 216.831 63.8481 216.762 64.1863 216.622C64.531 216.476 64.8228 216.278 65.0615 216.026C65.3068 215.774 65.4925 215.479 65.6184 215.14C65.7444 214.802 65.8074 214.438 65.8074 214.046C65.8074 213.635 65.7444 213.264 65.6184 212.933C65.4925 212.594 65.3068 212.303 65.0615 212.057C64.8228 211.805 64.531 211.613 64.1863 211.48C63.8481 211.348 63.4602 211.282 63.0226 211.282H61.2125V210.386H62.9232C63.5796 210.386 64.1498 210.489 64.6338 210.695C65.1178 210.894 65.519 211.166 65.8372 211.51C66.1621 211.848 66.4041 212.23 66.5633 212.654C66.7224 213.072 66.802 213.499 66.802 213.937V214.156C66.802 214.58 66.7224 215.005 66.5633 215.429C66.4041 215.853 66.1621 216.238 65.8372 216.583C65.519 216.927 65.1178 217.206 64.6338 217.418C64.1498 217.624 63.5796 217.726 62.9232 217.726H61.2125ZM60.4368 217.726V210.386H61.4114V217.726H60.4368ZM70.4223 217.866C69.9582 217.866 69.557 217.786 69.2189 217.627C68.8807 217.468 68.6056 217.259 68.3934 217C68.1812 216.735 68.0221 216.44 67.916 216.115C67.8166 215.79 67.7668 215.459 67.7668 215.121V214.942C67.7668 214.597 67.8166 214.262 67.916 213.937C68.0221 213.612 68.1812 213.32 68.3934 213.062C68.6056 212.797 68.8741 212.588 69.199 212.435C69.5305 212.276 69.9184 212.197 70.3626 212.197C70.9395 212.197 71.4136 212.323 71.7849 212.574C72.1628 212.82 72.4413 213.138 72.6203 213.529C72.8059 213.92 72.8988 214.338 72.8988 214.782V215.21H68.1845V214.494H72.2026L71.9838 214.882C71.9838 214.504 71.9241 214.179 71.8047 213.907C71.6854 213.629 71.5064 213.413 71.2677 213.261C71.029 213.108 70.7273 213.032 70.3626 213.032C69.9847 213.032 69.6698 213.118 69.4178 213.291C69.1725 213.463 68.9868 213.698 68.8608 213.997C68.7415 214.295 68.6818 214.64 68.6818 215.031C68.6818 215.409 68.7415 215.75 68.8608 216.055C68.9868 216.354 69.1791 216.593 69.4377 216.772C69.6963 216.944 70.0245 217.03 70.4223 217.03C70.84 217.03 71.1782 216.937 71.4368 216.752C71.702 216.566 71.8611 216.35 71.9142 216.105H72.8093C72.7363 216.47 72.5905 216.785 72.3716 217.05C72.1528 217.315 71.8777 217.517 71.5462 217.657C71.2146 217.796 70.84 217.866 70.4223 217.866ZM74.2544 219.676V212.376H75.0103V214.673L74.8312 214.653C74.8644 214.083 74.9837 213.619 75.1893 213.261C75.4015 212.896 75.6766 212.628 76.0148 212.455C76.3529 212.283 76.7209 212.197 77.1187 212.197C77.5033 212.197 77.8514 212.269 78.163 212.415C78.4813 212.561 78.7531 212.76 78.9786 213.012C79.204 213.264 79.3764 213.556 79.4957 213.887C79.6151 214.219 79.6748 214.57 79.6748 214.942V215.121C79.6748 215.492 79.6118 215.843 79.4858 216.175C79.3598 216.506 79.1808 216.798 78.9487 217.05C78.7233 217.302 78.4514 217.501 78.1332 217.647C77.8216 217.793 77.4768 217.866 77.0988 217.866C76.7209 217.866 76.3595 217.783 76.0148 217.617C75.67 217.451 75.3849 217.183 75.1594 216.811C74.934 216.44 74.8047 215.953 74.7716 215.349L75.2092 216.145V219.676H74.2544ZM76.9497 217.03C77.3077 217.03 77.6193 216.947 77.8845 216.781C78.1498 216.609 78.3553 216.374 78.5012 216.075C78.647 215.77 78.72 215.422 78.72 215.031C78.72 214.633 78.647 214.285 78.5012 213.987C78.3553 213.688 78.1498 213.456 77.8845 213.291C77.6193 213.118 77.3077 213.032 76.9497 213.032C76.6314 213.032 76.3363 213.105 76.0645 213.251C75.7926 213.39 75.5738 213.596 75.4081 213.867C75.249 214.133 75.1694 214.454 75.1694 214.832V215.29C75.1694 215.654 75.2523 215.966 75.418 216.225C75.5838 216.483 75.8026 216.682 76.0744 216.821C76.3463 216.96 76.638 217.03 76.9497 217.03ZM83.558 217.866C83.0939 217.866 82.6861 217.786 82.3347 217.627C81.9833 217.468 81.685 217.259 81.4396 217C81.2009 216.735 81.0186 216.44 80.8926 216.115C80.7733 215.79 80.7136 215.459 80.7136 215.121V214.942C80.7136 214.603 80.7766 214.272 80.9026 213.947C81.0285 213.615 81.2142 213.32 81.4595 213.062C81.7048 212.797 82.0032 212.588 82.3546 212.435C82.706 212.276 83.1072 212.197 83.558 212.197C84.0089 212.197 84.41 212.276 84.7615 212.435C85.1129 212.588 85.4112 212.797 85.6566 213.062C85.9019 213.32 86.0875 213.615 86.2135 213.947C86.3395 214.272 86.4025 214.603 86.4025 214.942V215.121C86.4025 215.459 86.3395 215.79 86.2135 216.115C86.0942 216.44 85.9118 216.735 85.6665 217C85.4278 217.259 85.1328 217.468 84.7814 217.627C84.4299 217.786 84.0222 217.866 83.558 217.866ZM83.558 217.01C83.9559 217.01 84.294 216.924 84.5725 216.752C84.8576 216.573 85.0731 216.334 85.219 216.036C85.3715 215.737 85.4477 215.402 85.4477 215.031C85.4477 214.653 85.3715 214.315 85.219 214.017C85.0665 213.718 84.8477 213.483 84.5625 213.31C84.2841 213.138 83.9492 213.052 83.558 213.052C83.1735 213.052 82.8386 213.138 82.5535 213.31C82.2684 213.483 82.0496 213.718 81.8971 214.017C81.7446 214.315 81.6684 214.653 81.6684 215.031C81.6684 215.402 81.7413 215.737 81.8872 216.036C82.0397 216.334 82.2552 216.573 82.5336 216.752C82.8188 216.924 83.1602 217.01 83.558 217.01ZM89.573 217.846C88.8768 217.846 88.3364 217.696 87.9518 217.398C87.5739 217.1 87.3783 216.692 87.365 216.175H88.2601C88.2734 216.38 88.3762 216.576 88.5685 216.762C88.7674 216.941 89.1022 217.03 89.573 217.03C89.9973 217.03 90.3222 216.947 90.5476 216.781C90.7731 216.609 90.8858 216.4 90.8858 216.155C90.8858 215.936 90.8029 215.767 90.6371 215.648C90.4714 215.522 90.2028 215.439 89.8315 215.399L89.2547 215.339C88.7508 215.286 88.3397 215.137 88.0214 214.892C87.7032 214.64 87.5441 214.288 87.5441 213.838C87.5441 213.499 87.6302 213.211 87.8026 212.972C87.975 212.727 88.2137 212.541 88.5187 212.415C88.8237 212.283 89.1751 212.216 89.573 212.216C90.1697 212.216 90.6537 212.349 91.025 212.614C91.3963 212.879 91.5886 213.274 91.6019 213.798H90.7068C90.7001 213.586 90.6007 213.407 90.4084 213.261C90.2227 213.108 89.9443 213.032 89.573 213.032C89.2017 213.032 88.9199 213.108 88.7276 213.261C88.5353 213.413 88.4392 213.606 88.4392 213.838C88.4392 214.036 88.5055 214.196 88.6381 214.315C88.7773 214.434 89.0027 214.511 89.3144 214.544L89.8912 214.603C90.4614 214.663 90.9189 214.822 91.2637 215.081C91.6085 215.333 91.7809 215.691 91.7809 216.155C91.7809 216.486 91.6847 216.781 91.4925 217.04C91.3068 217.292 91.0482 217.491 90.7167 217.637C90.3852 217.776 90.0039 217.846 89.573 217.846ZM93.4232 217.687V212.376H94.378V217.687H93.4232ZM92.6077 213.131V212.376H94.378V213.131H92.6077ZM93.6918 211.52C93.4796 211.52 93.3205 211.464 93.2144 211.351C93.1149 211.238 93.0652 211.096 93.0652 210.924C93.0652 210.751 93.1149 210.609 93.2144 210.496C93.3205 210.383 93.4796 210.327 93.6918 210.327C93.9039 210.327 94.0597 210.383 94.1592 210.496C94.2653 210.609 94.3183 210.751 94.3183 210.924C94.3183 211.096 94.2653 211.238 94.1592 211.351C94.0597 211.464 93.9039 211.52 93.6918 211.52ZM98.2928 217.746C97.8949 217.746 97.5502 217.69 97.2584 217.577C96.9733 217.464 96.7512 217.272 96.5921 217C96.4396 216.722 96.3633 216.347 96.3633 215.876V210.764H97.2783V215.996C97.2783 216.281 97.3546 216.503 97.5071 216.662C97.6662 216.815 97.8883 216.891 98.1734 216.891H99.1083V217.746H98.2928ZM95.4483 213.092V212.376H99.1083V213.092H95.4483Z" fill="white"/>
<rect x="1.66757" y="73.6676" width="155.084" height="167.161" rx="23.346" stroke="#47C6E2" stroke-width="3.33514" stroke-linecap="round"/>
<line x1="79" y1="1" x2="713" y2="0.999948" stroke="#47C6E2" stroke-width="2" stroke-dasharray="4 4"/>
<line x1="80" y1="3" x2="80" y2="64" stroke="url(#paint0_linear_485_15764)" stroke-width="2" stroke-dasharray="4 4"/>
<line x1="712" y1="-4.11616e-08" x2="712" y2="61" stroke="url(#paint1_linear_485_15764)" stroke-width="2" stroke-dasharray="4 4"/>
<rect x="648.196" y="202.35" width="130.607" height="22.5471" rx="11.2735" fill="#47C6E2"/>
<rect x="648.196" y="86.1963" width="61.7543" height="17.7455" rx="8.87274" fill="#B0E0EB"/>
<rect x="717.049" y="86.1963" width="61.7543" height="17.7455" rx="8.87274" fill="#47C6E2"/>
<rect x="648.196" y="119.913" width="130.607" height="17.6149" rx="3.5491" fill="#B0E0EB"/>
<rect x="648.196" y="161.484" width="130.607" height="17.6149" rx="3.5491" fill="#B0E0EB"/>
<path d="M690.076 217.575L688.287 210.321H689.967L691.368 216.482L691.02 216.254H691.924L691.537 216.482L692.62 210.589H693.971L692.55 217.575H690.076ZM694.399 217.575L692.868 210.589H694.289L695.542 216.482L695.164 216.254H696.029L695.701 216.482L696.923 210.321H698.513L696.923 217.575H694.399ZM699.592 217.575V212.13H701.182V217.575H699.592ZM698.866 213.302V212.13H701.182V213.302H698.866ZM700.208 211.593C699.91 211.593 699.688 211.517 699.542 211.365C699.403 211.206 699.333 211.007 699.333 210.768C699.333 210.523 699.403 210.324 699.542 210.172C699.688 210.013 699.91 209.934 700.208 209.934C700.506 209.934 700.725 210.013 700.864 210.172C701.01 210.324 701.082 210.523 701.082 210.768C701.082 211.007 701.01 211.206 700.864 211.365C700.725 211.517 700.506 211.593 700.208 211.593ZM705.127 217.645C704.577 217.645 704.133 217.579 703.795 217.446C703.457 217.307 703.209 217.079 703.05 216.761C702.898 216.436 702.821 215.999 702.821 215.449V210.659H704.302V215.508C704.302 215.767 704.368 215.966 704.501 216.105C704.64 216.237 704.835 216.303 705.087 216.303H705.892V217.645H705.127ZM701.997 213.292V212.13H705.892V213.292H701.997ZM706.961 217.575V210.321H708.551V214.505H708.313C708.313 213.955 708.382 213.491 708.521 213.114C708.661 212.736 708.866 212.451 709.138 212.259C709.409 212.06 709.75 211.961 710.161 211.961H710.231C710.834 211.961 711.294 212.176 711.612 212.607C711.93 213.031 712.089 213.653 712.089 214.475V217.575H710.499V214.376C710.499 214.077 710.41 213.839 710.231 213.66C710.058 213.475 709.83 213.382 709.545 213.382C709.247 213.382 709.005 213.478 708.82 213.67C708.641 213.862 708.551 214.117 708.551 214.435V217.575H706.961ZM715.69 217.754C715.306 217.754 714.954 217.685 714.636 217.546C714.325 217.407 714.053 217.214 713.822 216.969C713.59 216.718 713.411 216.423 713.285 216.085C713.166 215.747 713.106 215.383 713.106 214.992V214.763C713.106 214.372 713.162 214.008 713.275 213.67C713.394 213.332 713.563 213.037 713.782 212.786C714.007 212.527 714.275 212.328 714.587 212.189C714.898 212.044 715.246 211.971 715.63 211.971C716.067 211.971 716.445 212.067 716.763 212.259C717.081 212.444 717.329 212.723 717.508 213.094C717.687 213.458 717.787 213.909 717.806 214.445L717.389 214.058V210.321H718.989V217.575H717.727V215.32H717.946C717.926 215.836 717.816 216.277 717.618 216.641C717.425 217.006 717.164 217.284 716.833 217.476C716.501 217.662 716.12 217.754 715.69 217.754ZM716.087 216.423C716.332 216.423 716.554 216.37 716.753 216.264C716.958 216.151 717.121 215.989 717.24 215.777C717.366 215.565 717.429 215.31 717.429 215.012V214.644C717.429 214.352 717.366 214.107 717.24 213.909C717.114 213.71 716.948 213.557 716.743 213.451C716.538 213.345 716.316 213.292 716.077 213.292C715.812 213.292 715.574 213.362 715.362 213.501C715.156 213.634 714.994 213.819 714.875 214.058C714.756 214.289 714.696 214.561 714.696 214.872C714.696 215.19 714.756 215.465 714.875 215.697C714.994 215.929 715.16 216.108 715.372 216.234C715.584 216.36 715.822 216.423 716.087 216.423ZM720.431 217.575V212.13H721.693V214.465H721.663C721.663 213.697 721.826 213.104 722.15 212.686C722.482 212.269 722.959 212.06 723.581 212.06H723.79V213.432H723.393C722.955 213.432 722.617 213.551 722.379 213.789C722.14 214.021 722.021 214.359 722.021 214.803V217.575H720.431ZM727.864 217.575V215.966H727.596V214.217C727.596 213.938 727.53 213.73 727.397 213.591C727.265 213.451 727.053 213.382 726.761 213.382C726.616 213.382 726.423 213.385 726.185 213.392C725.946 213.398 725.701 213.408 725.45 213.422C725.198 213.435 724.969 213.448 724.764 213.461V212.12C724.916 212.107 725.095 212.093 725.3 212.08C725.506 212.067 725.718 212.057 725.936 212.05C726.155 212.044 726.36 212.04 726.553 212.04C727.109 212.04 727.576 212.12 727.954 212.279C728.338 212.438 728.629 212.68 728.828 213.004C729.027 213.322 729.126 213.733 729.126 214.236V217.575H727.864ZM726.125 217.715C725.734 217.715 725.39 217.645 725.092 217.506C724.8 217.367 724.572 217.168 724.406 216.91C724.24 216.645 724.158 216.33 724.158 215.966C724.158 215.568 724.26 215.243 724.466 214.992C724.671 214.733 724.959 214.545 725.33 214.425C725.701 214.299 726.129 214.236 726.612 214.236H727.775V215.121H726.602C726.324 215.121 726.109 215.19 725.956 215.33C725.811 215.462 725.738 215.644 725.738 215.876C725.738 216.095 725.811 216.274 725.956 216.413C726.109 216.545 726.324 216.612 726.602 216.612C726.781 216.612 726.94 216.582 727.079 216.522C727.225 216.456 727.344 216.347 727.437 216.194C727.53 216.042 727.583 215.83 727.596 215.558L727.974 215.956C727.94 216.333 727.848 216.651 727.695 216.91C727.55 217.168 727.344 217.367 727.079 217.506C726.821 217.645 726.503 217.715 726.125 217.715ZM732.376 217.575L733.37 212.309H735.109L736.261 217.575H735.029L733.847 212.348H734.552L733.489 217.575H732.376ZM731.998 217.575L731.988 216.254H733.081L733.091 217.575H731.998ZM731.283 217.575L729.822 212.13H731.382L732.743 217.575H731.283ZM735.437 217.575L735.446 216.254H736.54V217.575H735.437ZM735.884 217.575L737.096 212.13H738.557L737.245 217.575H735.884Z" fill="white"/>
<rect x="635.666" y="73.6662" width="154.957" height="167.024" rx="23.3269" stroke="#47C6E2" stroke-width="3.33241" stroke-linecap="round"/>
<defs>
<linearGradient id="paint0_linear_485_15764" x1="78.9999" y1="59.0181" x2="78.9876" y2="33.4995" gradientUnits="userSpaceOnUse">
<stop stop-color="#47C6E2" stop-opacity="0"/>
<stop offset="1" stop-color="#47C6E2"/>
</linearGradient>
<linearGradient id="paint1_linear_485_15764" x1="711" y1="56.0181" x2="710.988" y2="30.4995" gradientUnits="userSpaceOnUse">
<stop stop-color="#47C6E2" stop-opacity="0"/>
<stop offset="1" stop-color="#47C6E2"/>
</linearGradient>
</defs>
</svg>
