<svg width="19" height="18" viewBox="0 0 19 18" fill="none" xmlns="http://www.w3.org/2000/svg">
<path d="M3.31238 4.5V13.5C3.31238 13.7984 3.4309 14.0845 3.64188 14.2955C3.85286 14.5065 4.13901 14.625 4.43738 14.625H15.6874C15.8366 14.625 15.9796 14.5657 16.0851 14.4602C16.1906 14.3548 16.2499 14.2117 16.2499 14.0625V6.1875C16.2499 6.03832 16.1906 5.89524 16.0851 5.78975C15.9796 5.68426 15.8366 5.625 15.6874 5.625H4.43738C4.13901 5.625 3.85286 5.50647 3.64188 5.29549C3.4309 5.08452 3.31238 4.79837 3.31238 4.5ZM3.31238 4.5C3.31238 4.20163 3.4309 3.91548 3.64188 3.7045C3.85286 3.49353 4.13901 3.375 4.43738 3.375H13.9999" stroke="white" stroke-width="1.35714" stroke-linecap="round" stroke-linejoin="round"/>
<path d="M13.1565 10.9688C13.6225 10.9688 14.0002 10.591 14.0002 10.125C14.0002 9.65901 13.6225 9.28125 13.1565 9.28125C12.6905 9.28125 12.3127 9.65901 12.3127 10.125C12.3127 10.591 12.6905 10.9688 13.1565 10.9688Z" fill="white"/>
</svg>
